G04 #@! TF.GenerationSoftware,KiCad,Pcbnew,5.1.9-73d0e3b20d~88~ubuntu20.04.1*
G04 #@! TF.CreationDate,2021-01-12T16:18:54+00:00*
G04 #@! TF.ProjectId,LEDsupply,4c454473-7570-4706-9c79-2e6b69636164,rev?*
G04 #@! TF.SameCoordinates,Original*
G04 #@! TF.FileFunction,Soldermask,Bot*
G04 #@! TF.FilePolarity,Negative*
%FSLAX46Y46*%
G04 Gerber Fmt 4.6, Leading zero omitted, Abs format (unit mm)*
G04 Created by KiCad (PCBNEW 5.1.9-73d0e3b20d~88~ubuntu20.04.1) date 2021-01-12 16:18:54*
%MOMM*%
%LPD*%
G01*
G04 APERTURE LIST*
%ADD10O,1.740000X2.200000*%
%ADD11C,2.200000*%
%ADD12C,1.750000*%
%ADD13O,4.000000X1.800000*%
%ADD14O,1.800000X4.000000*%
G04 APERTURE END LIST*
D10*
G04 #@! TO.C,JP3*
X138430000Y-102235000D03*
X140970000Y-102235000D03*
G36*
G01*
X144380000Y-101384999D02*
X144380000Y-103085001D01*
G75*
G02*
X144130001Y-103335000I-249999J0D01*
G01*
X142889999Y-103335000D01*
G75*
G02*
X142640000Y-103085001I0J249999D01*
G01*
X142640000Y-101384999D01*
G75*
G02*
X142889999Y-101135000I249999J0D01*
G01*
X144130001Y-101135000D01*
G75*
G02*
X144380000Y-101384999I0J-249999D01*
G01*
G37*
G04 #@! TD*
D11*
G04 #@! TO.C,H2*
X119126000Y-103378000D03*
G04 #@! TD*
G04 #@! TO.C,H1*
X132588000Y-89916000D03*
G04 #@! TD*
G04 #@! TO.C,R7*
G36*
G01*
X139897500Y-99951250D02*
X139897500Y-99438750D01*
G75*
G02*
X140116250Y-99220000I218750J0D01*
G01*
X140553750Y-99220000D01*
G75*
G02*
X140772500Y-99438750I0J-218750D01*
G01*
X140772500Y-99951250D01*
G75*
G02*
X140553750Y-100170000I-218750J0D01*
G01*
X140116250Y-100170000D01*
G75*
G02*
X139897500Y-99951250I0J218750D01*
G01*
G37*
G36*
G01*
X138322500Y-99951250D02*
X138322500Y-99438750D01*
G75*
G02*
X138541250Y-99220000I218750J0D01*
G01*
X138978750Y-99220000D01*
G75*
G02*
X139197500Y-99438750I0J-218750D01*
G01*
X139197500Y-99951250D01*
G75*
G02*
X138978750Y-100170000I-218750J0D01*
G01*
X138541250Y-100170000D01*
G75*
G02*
X138322500Y-99951250I0J218750D01*
G01*
G37*
G04 #@! TD*
D12*
G04 #@! TO.C,JP1*
X142400000Y-95280000D03*
X142400000Y-92980000D03*
X140100000Y-96780000D03*
X140100000Y-91180000D03*
X138100000Y-96280000D03*
X138100000Y-91680000D03*
G04 #@! TD*
D13*
G04 #@! TO.C,JP2*
X121010001Y-90380000D03*
X124610001Y-92480000D03*
D14*
X119310001Y-95880000D03*
G04 #@! TD*
M02*
