G04 #@! TF.GenerationSoftware,KiCad,Pcbnew,5.1.9-73d0e3b20d~88~ubuntu20.04.1*
G04 #@! TF.CreationDate,2021-01-12T16:18:54+00:00*
G04 #@! TF.ProjectId,LEDsupply,4c454473-7570-4706-9c79-2e6b69636164,rev?*
G04 #@! TF.SameCoordinates,Original*
G04 #@! TF.FileFunction,Copper,L2,Bot*
G04 #@! TF.FilePolarity,Positive*
%FSLAX46Y46*%
G04 Gerber Fmt 4.6, Leading zero omitted, Abs format (unit mm)*
G04 Created by KiCad (PCBNEW 5.1.9-73d0e3b20d~88~ubuntu20.04.1) date 2021-01-12 16:18:54*
%MOMM*%
%LPD*%
G01*
G04 APERTURE LIST*
G04 #@! TA.AperFunction,ComponentPad*
%ADD10O,1.740000X2.200000*%
G04 #@! TD*
G04 #@! TA.AperFunction,ComponentPad*
%ADD11C,1.750000*%
G04 #@! TD*
G04 #@! TA.AperFunction,ComponentPad*
%ADD12O,4.000000X1.800000*%
G04 #@! TD*
G04 #@! TA.AperFunction,ComponentPad*
%ADD13O,1.800000X4.000000*%
G04 #@! TD*
G04 #@! TA.AperFunction,ViaPad*
%ADD14C,1.000000*%
G04 #@! TD*
G04 #@! TA.AperFunction,Conductor*
%ADD15C,0.381000*%
G04 #@! TD*
G04 #@! TA.AperFunction,Conductor*
%ADD16C,1.024000*%
G04 #@! TD*
G04 #@! TA.AperFunction,Conductor*
%ADD17C,0.508000*%
G04 #@! TD*
G04 #@! TA.AperFunction,Conductor*
%ADD18C,0.254000*%
G04 #@! TD*
G04 #@! TA.AperFunction,Conductor*
%ADD19C,0.100000*%
G04 #@! TD*
G04 APERTURE END LIST*
D10*
G04 #@! TO.P,JP3,3*
G04 #@! TO.N,/VREGOUT*
X138430000Y-102235000D03*
G04 #@! TO.P,JP3,2*
G04 #@! TO.N,/PWM*
X140970000Y-102235000D03*
G04 #@! TO.P,JP3,1*
G04 #@! TO.N,GND*
G04 #@! TA.AperFunction,ComponentPad*
G36*
G01*
X144380000Y-101384999D02*
X144380000Y-103085001D01*
G75*
G02*
X144130001Y-103335000I-249999J0D01*
G01*
X142889999Y-103335000D01*
G75*
G02*
X142640000Y-103085001I0J249999D01*
G01*
X142640000Y-101384999D01*
G75*
G02*
X142889999Y-101135000I249999J0D01*
G01*
X144130001Y-101135000D01*
G75*
G02*
X144380000Y-101384999I0J-249999D01*
G01*
G37*
G04 #@! TD.AperFunction*
G04 #@! TD*
G04 #@! TO.P,R7,2*
G04 #@! TO.N,GND*
G04 #@! TA.AperFunction,SMDPad,CuDef*
G36*
G01*
X139897500Y-99951250D02*
X139897500Y-99438750D01*
G75*
G02*
X140116250Y-99220000I218750J0D01*
G01*
X140553750Y-99220000D01*
G75*
G02*
X140772500Y-99438750I0J-218750D01*
G01*
X140772500Y-99951250D01*
G75*
G02*
X140553750Y-100170000I-218750J0D01*
G01*
X140116250Y-100170000D01*
G75*
G02*
X139897500Y-99951250I0J218750D01*
G01*
G37*
G04 #@! TD.AperFunction*
G04 #@! TO.P,R7,1*
G04 #@! TO.N,/VREGOUT*
G04 #@! TA.AperFunction,SMDPad,CuDef*
G36*
G01*
X138322500Y-99951250D02*
X138322500Y-99438750D01*
G75*
G02*
X138541250Y-99220000I218750J0D01*
G01*
X138978750Y-99220000D01*
G75*
G02*
X139197500Y-99438750I0J-218750D01*
G01*
X139197500Y-99951250D01*
G75*
G02*
X138978750Y-100170000I-218750J0D01*
G01*
X138541250Y-100170000D01*
G75*
G02*
X138322500Y-99951250I0J218750D01*
G01*
G37*
G04 #@! TD.AperFunction*
G04 #@! TD*
D11*
G04 #@! TO.P,JP1,1*
G04 #@! TO.N,/SDA*
X142400000Y-95280000D03*
G04 #@! TO.P,JP1,2*
G04 #@! TO.N,/PWM*
X142400000Y-92980000D03*
G04 #@! TO.P,JP1,3*
G04 #@! TO.N,GND*
X140100000Y-96780000D03*
G04 #@! TO.P,JP1,4*
G04 #@! TO.N,+5V*
X140100000Y-91180000D03*
G04 #@! TO.P,JP1,5*
G04 #@! TO.N,/SCL*
X138100000Y-96280000D03*
G04 #@! TO.P,JP1,6*
G04 #@! TO.N,/~ERR*
X138100000Y-91680000D03*
G04 #@! TD*
D12*
G04 #@! TO.P,JP2,1*
G04 #@! TO.N,+24V*
X121010001Y-90380000D03*
G04 #@! TO.P,JP2,2*
G04 #@! TO.N,N/C*
X124610001Y-92480000D03*
D13*
G04 #@! TO.P,JP2,3*
G04 #@! TO.N,GND*
X119310001Y-95880000D03*
G04 #@! TD*
D14*
G04 #@! TO.N,GND*
X129557500Y-99712500D03*
X135230010Y-101600000D03*
G04 #@! TO.N,+5V*
X137504679Y-98134679D03*
G04 #@! TO.N,Net-(C3-Pad2)*
X127635000Y-102235000D03*
X126365000Y-96520000D03*
G04 #@! TD*
D15*
G04 #@! TO.N,GND*
X140970000Y-104775000D02*
X142875000Y-102870000D01*
X129557500Y-99712500D02*
X133367500Y-99712500D01*
X135230010Y-101575010D02*
X135230010Y-101600000D01*
X133367500Y-99712500D02*
X135230010Y-101575010D01*
X135230010Y-102707912D02*
X135230010Y-101600000D01*
X137297098Y-104775000D02*
X135230010Y-102707912D01*
X140970000Y-104775000D02*
X137297098Y-104775000D01*
D16*
X140100000Y-96780000D02*
X140100000Y-98825000D01*
D17*
X140335000Y-99695000D02*
X140335000Y-99060000D01*
D16*
X140335000Y-99060000D02*
X143510000Y-102235000D01*
X140100000Y-98825000D02*
X140335000Y-99060000D01*
D17*
G04 #@! TO.N,+5V*
X136770999Y-97400999D02*
X137504679Y-98134679D01*
X136770999Y-95642079D02*
X136770999Y-97400999D01*
X140100000Y-92313078D02*
X136770999Y-95642079D01*
X140100000Y-91180000D02*
X140100000Y-92313078D01*
G04 #@! TO.N,/VREGOUT*
X138760000Y-101905000D02*
X138430000Y-102235000D01*
X138760000Y-99695000D02*
X138760000Y-101905000D01*
G04 #@! TO.N,Net-(C3-Pad2)*
X126365000Y-100965000D02*
X127635000Y-102235000D01*
X126365000Y-96520000D02*
X126365000Y-100965000D01*
G04 #@! TD*
D18*
G04 #@! TO.N,GND*
X131766169Y-88378463D02*
X131482002Y-88568337D01*
X131240337Y-88810002D01*
X131050463Y-89094169D01*
X130919675Y-89409919D01*
X130853000Y-89745117D01*
X130853000Y-90086883D01*
X130919675Y-90422081D01*
X131050463Y-90737831D01*
X131240337Y-91021998D01*
X131482002Y-91263663D01*
X131766169Y-91453537D01*
X132081919Y-91584325D01*
X132417117Y-91651000D01*
X132758883Y-91651000D01*
X133094081Y-91584325D01*
X133409831Y-91453537D01*
X133693998Y-91263663D01*
X133935663Y-91021998D01*
X134125537Y-90737831D01*
X134256325Y-90422081D01*
X134323000Y-90086883D01*
X134323000Y-89745117D01*
X134256325Y-89409919D01*
X134125537Y-89094169D01*
X133935663Y-88810002D01*
X133693998Y-88568337D01*
X133409831Y-88378463D01*
X133196263Y-88290000D01*
X144755001Y-88290000D01*
X144755000Y-100621292D01*
X144734494Y-100604463D01*
X144624180Y-100545498D01*
X144504482Y-100509188D01*
X144380000Y-100496928D01*
X143795750Y-100500000D01*
X143637000Y-100658750D01*
X143637000Y-102108000D01*
X143657000Y-102108000D01*
X143657000Y-102362000D01*
X143637000Y-102362000D01*
X143637000Y-103811250D01*
X143795750Y-103970000D01*
X144380000Y-103973072D01*
X144504482Y-103960812D01*
X144624180Y-103924502D01*
X144734494Y-103865537D01*
X144755000Y-103848708D01*
X144755000Y-105004000D01*
X119734263Y-105004000D01*
X119947831Y-104915537D01*
X120231998Y-104725663D01*
X120473663Y-104483998D01*
X120663537Y-104199831D01*
X120794325Y-103884081D01*
X120861000Y-103548883D01*
X120861000Y-103207117D01*
X120794325Y-102871919D01*
X120663537Y-102556169D01*
X120473663Y-102272002D01*
X120231998Y-102030337D01*
X119947831Y-101840463D01*
X119632081Y-101709675D01*
X119296883Y-101643000D01*
X118955117Y-101643000D01*
X118619919Y-101709675D01*
X118304169Y-101840463D01*
X118020002Y-102030337D01*
X117778337Y-102272002D01*
X117588463Y-102556169D01*
X117500000Y-102769737D01*
X117500000Y-96007000D01*
X117775001Y-96007000D01*
X117775001Y-97107000D01*
X117829272Y-97404023D01*
X117940447Y-97684751D01*
X118104253Y-97938396D01*
X118314395Y-98155210D01*
X118562797Y-98326862D01*
X118839914Y-98446755D01*
X118945261Y-98471036D01*
X119183001Y-98350378D01*
X119183001Y-96007000D01*
X119437001Y-96007000D01*
X119437001Y-98350378D01*
X119674741Y-98471036D01*
X119780088Y-98446755D01*
X120057205Y-98326862D01*
X120305607Y-98155210D01*
X120515749Y-97938396D01*
X120679555Y-97684751D01*
X120790730Y-97404023D01*
X120845001Y-97107000D01*
X120845001Y-96408212D01*
X125230000Y-96408212D01*
X125230000Y-96631788D01*
X125273617Y-96851067D01*
X125359176Y-97057624D01*
X125476000Y-97232463D01*
X125476001Y-100921330D01*
X125471700Y-100965000D01*
X125488864Y-101139274D01*
X125539698Y-101306852D01*
X125603532Y-101426276D01*
X125622248Y-101461291D01*
X125733342Y-101596659D01*
X125767259Y-101624494D01*
X126502594Y-102359830D01*
X126543617Y-102566067D01*
X126629176Y-102772624D01*
X126753388Y-102958520D01*
X126911480Y-103116612D01*
X127097376Y-103240824D01*
X127303933Y-103326383D01*
X127523212Y-103370000D01*
X127746788Y-103370000D01*
X127966067Y-103326383D01*
X128172624Y-103240824D01*
X128358520Y-103116612D01*
X128516612Y-102958520D01*
X128640824Y-102772624D01*
X128726383Y-102566067D01*
X128770000Y-102346788D01*
X128770000Y-102123212D01*
X128726383Y-101903933D01*
X128640824Y-101697376D01*
X128516612Y-101511480D01*
X128358520Y-101353388D01*
X128172624Y-101229176D01*
X127966067Y-101143617D01*
X127759830Y-101102594D01*
X127254000Y-100596765D01*
X127254000Y-97232463D01*
X127370824Y-97057624D01*
X127456383Y-96851067D01*
X127500000Y-96631788D01*
X127500000Y-96408212D01*
X127456383Y-96188933D01*
X127370824Y-95982376D01*
X127246612Y-95796480D01*
X127092211Y-95642079D01*
X135877699Y-95642079D01*
X135881999Y-95685739D01*
X135882000Y-97357329D01*
X135877699Y-97400999D01*
X135894863Y-97575273D01*
X135945697Y-97742851D01*
X136028247Y-97897290D01*
X136080043Y-97960403D01*
X136139341Y-98032658D01*
X136173258Y-98060493D01*
X136372273Y-98259508D01*
X136413296Y-98465746D01*
X136498855Y-98672303D01*
X136623067Y-98858199D01*
X136781159Y-99016291D01*
X136967055Y-99140503D01*
X137173612Y-99226062D01*
X137392891Y-99269679D01*
X137616467Y-99269679D01*
X137706931Y-99251685D01*
X137700892Y-99271592D01*
X137684428Y-99438750D01*
X137684428Y-99951250D01*
X137700892Y-100118408D01*
X137749650Y-100279142D01*
X137828829Y-100427275D01*
X137871000Y-100478661D01*
X137871000Y-100601851D01*
X137851276Y-100607834D01*
X137589822Y-100747583D01*
X137360655Y-100935655D01*
X137172583Y-101164821D01*
X137032834Y-101426275D01*
X136946776Y-101709968D01*
X136925000Y-101931064D01*
X136925000Y-102538935D01*
X136946776Y-102760031D01*
X137032834Y-103043724D01*
X137172583Y-103305178D01*
X137360655Y-103534345D01*
X137589821Y-103722417D01*
X137851275Y-103862166D01*
X138134968Y-103948224D01*
X138430000Y-103977282D01*
X138725031Y-103948224D01*
X139008724Y-103862166D01*
X139270178Y-103722417D01*
X139499345Y-103534345D01*
X139687417Y-103305179D01*
X139700000Y-103281637D01*
X139712583Y-103305178D01*
X139900655Y-103534345D01*
X140129821Y-103722417D01*
X140391275Y-103862166D01*
X140674968Y-103948224D01*
X140970000Y-103977282D01*
X141265031Y-103948224D01*
X141548724Y-103862166D01*
X141810178Y-103722417D01*
X142037385Y-103535953D01*
X142050498Y-103579180D01*
X142109463Y-103689494D01*
X142188815Y-103786185D01*
X142285506Y-103865537D01*
X142395820Y-103924502D01*
X142515518Y-103960812D01*
X142640000Y-103973072D01*
X143224250Y-103970000D01*
X143383000Y-103811250D01*
X143383000Y-102362000D01*
X143363000Y-102362000D01*
X143363000Y-102108000D01*
X143383000Y-102108000D01*
X143383000Y-100658750D01*
X143224250Y-100500000D01*
X142640000Y-100496928D01*
X142515518Y-100509188D01*
X142395820Y-100545498D01*
X142285506Y-100604463D01*
X142188815Y-100683815D01*
X142109463Y-100780506D01*
X142050498Y-100890820D01*
X142037385Y-100934047D01*
X141810179Y-100747583D01*
X141548725Y-100607834D01*
X141297248Y-100531549D01*
X141303037Y-100524494D01*
X141362002Y-100414180D01*
X141398312Y-100294482D01*
X141410572Y-100170000D01*
X141407500Y-99980750D01*
X141248750Y-99822000D01*
X140462000Y-99822000D01*
X140462000Y-99842000D01*
X140208000Y-99842000D01*
X140208000Y-99822000D01*
X140188000Y-99822000D01*
X140188000Y-99568000D01*
X140208000Y-99568000D01*
X140208000Y-98743750D01*
X140462000Y-98743750D01*
X140462000Y-99568000D01*
X141248750Y-99568000D01*
X141407500Y-99409250D01*
X141410572Y-99220000D01*
X141398312Y-99095518D01*
X141362002Y-98975820D01*
X141303037Y-98865506D01*
X141223685Y-98768815D01*
X141126994Y-98689463D01*
X141016680Y-98630498D01*
X140896982Y-98594188D01*
X140772500Y-98581928D01*
X140620750Y-98585000D01*
X140462000Y-98743750D01*
X140208000Y-98743750D01*
X140049250Y-98585000D01*
X139897500Y-98581928D01*
X139773018Y-98594188D01*
X139653320Y-98630498D01*
X139543006Y-98689463D01*
X139476430Y-98744100D01*
X139454775Y-98726329D01*
X139306642Y-98647150D01*
X139145908Y-98598392D01*
X138978750Y-98581928D01*
X138547938Y-98581928D01*
X138596062Y-98465746D01*
X138639679Y-98246467D01*
X138639679Y-98022891D01*
X138600563Y-97826240D01*
X139233365Y-97826240D01*
X139314025Y-98077868D01*
X139582329Y-98206267D01*
X139870526Y-98279855D01*
X140167543Y-98295804D01*
X140461963Y-98253501D01*
X140742474Y-98154572D01*
X140885975Y-98077868D01*
X140966635Y-97826240D01*
X140100000Y-96959605D01*
X139233365Y-97826240D01*
X138600563Y-97826240D01*
X138596062Y-97803612D01*
X138562589Y-97722801D01*
X138815253Y-97618144D01*
X138863763Y-97585731D01*
X139053760Y-97646635D01*
X139920395Y-96780000D01*
X139906253Y-96765858D01*
X140085858Y-96586253D01*
X140100000Y-96600395D01*
X140114143Y-96586253D01*
X140293748Y-96765858D01*
X140279605Y-96780000D01*
X141146240Y-97646635D01*
X141397868Y-97565975D01*
X141526267Y-97297671D01*
X141599855Y-97009474D01*
X141615804Y-96712457D01*
X141593492Y-96557169D01*
X141684747Y-96618144D01*
X141959549Y-96731971D01*
X142251278Y-96790000D01*
X142548722Y-96790000D01*
X142840451Y-96731971D01*
X143115253Y-96618144D01*
X143362569Y-96452893D01*
X143572893Y-96242569D01*
X143738144Y-95995253D01*
X143851971Y-95720451D01*
X143910000Y-95428722D01*
X143910000Y-95131278D01*
X143851971Y-94839549D01*
X143738144Y-94564747D01*
X143572893Y-94317431D01*
X143385462Y-94130000D01*
X143572893Y-93942569D01*
X143738144Y-93695253D01*
X143851971Y-93420451D01*
X143910000Y-93128722D01*
X143910000Y-92831278D01*
X143851971Y-92539549D01*
X143738144Y-92264747D01*
X143572893Y-92017431D01*
X143362569Y-91807107D01*
X143115253Y-91641856D01*
X142840451Y-91528029D01*
X142548722Y-91470000D01*
X142251278Y-91470000D01*
X141959549Y-91528029D01*
X141684747Y-91641856D01*
X141488901Y-91772716D01*
X141551971Y-91620451D01*
X141610000Y-91328722D01*
X141610000Y-91031278D01*
X141551971Y-90739549D01*
X141438144Y-90464747D01*
X141272893Y-90217431D01*
X141062569Y-90007107D01*
X140815253Y-89841856D01*
X140540451Y-89728029D01*
X140248722Y-89670000D01*
X139951278Y-89670000D01*
X139659549Y-89728029D01*
X139384747Y-89841856D01*
X139137431Y-90007107D01*
X138927107Y-90217431D01*
X138835106Y-90355121D01*
X138815253Y-90341856D01*
X138540451Y-90228029D01*
X138248722Y-90170000D01*
X137951278Y-90170000D01*
X137659549Y-90228029D01*
X137384747Y-90341856D01*
X137137431Y-90507107D01*
X136927107Y-90717431D01*
X136761856Y-90964747D01*
X136648029Y-91239549D01*
X136590000Y-91531278D01*
X136590000Y-91828722D01*
X136648029Y-92120451D01*
X136761856Y-92395253D01*
X136927107Y-92642569D01*
X137137431Y-92852893D01*
X137384747Y-93018144D01*
X137659549Y-93131971D01*
X137951278Y-93190000D01*
X137965843Y-93190000D01*
X136173263Y-94982580D01*
X136139340Y-95010420D01*
X136028246Y-95145789D01*
X135945696Y-95300229D01*
X135916997Y-95394838D01*
X135906751Y-95428617D01*
X135894863Y-95467806D01*
X135881999Y-95598413D01*
X135881999Y-95598419D01*
X135877699Y-95642079D01*
X127092211Y-95642079D01*
X127088520Y-95638388D01*
X126902624Y-95514176D01*
X126696067Y-95428617D01*
X126476788Y-95385000D01*
X126253212Y-95385000D01*
X126033933Y-95428617D01*
X125827376Y-95514176D01*
X125641480Y-95638388D01*
X125483388Y-95796480D01*
X125359176Y-95982376D01*
X125273617Y-96188933D01*
X125230000Y-96408212D01*
X120845001Y-96408212D01*
X120845001Y-96007000D01*
X119437001Y-96007000D01*
X119183001Y-96007000D01*
X117775001Y-96007000D01*
X117500000Y-96007000D01*
X117500000Y-94653000D01*
X117775001Y-94653000D01*
X117775001Y-95753000D01*
X119183001Y-95753000D01*
X119183001Y-93409622D01*
X119437001Y-93409622D01*
X119437001Y-95753000D01*
X120845001Y-95753000D01*
X120845001Y-94653000D01*
X120790730Y-94355977D01*
X120679555Y-94075249D01*
X120515749Y-93821604D01*
X120305607Y-93604790D01*
X120057205Y-93433138D01*
X119780088Y-93313245D01*
X119674741Y-93288964D01*
X119437001Y-93409622D01*
X119183001Y-93409622D01*
X118945261Y-93288964D01*
X118839914Y-93313245D01*
X118562797Y-93433138D01*
X118314395Y-93604790D01*
X118104253Y-93821604D01*
X117940447Y-94075249D01*
X117829272Y-94355977D01*
X117775001Y-94653000D01*
X117500000Y-94653000D01*
X117500000Y-90380000D01*
X118367574Y-90380000D01*
X118397211Y-90680913D01*
X118484984Y-90970261D01*
X118627520Y-91236927D01*
X118819340Y-91470661D01*
X119053074Y-91662481D01*
X119319740Y-91805017D01*
X119609088Y-91892790D01*
X119834593Y-91915000D01*
X122077321Y-91915000D01*
X121997211Y-92179087D01*
X121967574Y-92480000D01*
X121997211Y-92780913D01*
X122084984Y-93070261D01*
X122227520Y-93336927D01*
X122419340Y-93570661D01*
X122653074Y-93762481D01*
X122919740Y-93905017D01*
X123209088Y-93992790D01*
X123434593Y-94015000D01*
X125785409Y-94015000D01*
X126010914Y-93992790D01*
X126300262Y-93905017D01*
X126566928Y-93762481D01*
X126800662Y-93570661D01*
X126992482Y-93336927D01*
X127135018Y-93070261D01*
X127222791Y-92780913D01*
X127252428Y-92480000D01*
X127222791Y-92179087D01*
X127135018Y-91889739D01*
X126992482Y-91623073D01*
X126800662Y-91389339D01*
X126566928Y-91197519D01*
X126300262Y-91054983D01*
X126010914Y-90967210D01*
X125785409Y-90945000D01*
X123542681Y-90945000D01*
X123622791Y-90680913D01*
X123652428Y-90380000D01*
X123622791Y-90079087D01*
X123535018Y-89789739D01*
X123392482Y-89523073D01*
X123200662Y-89289339D01*
X122966928Y-89097519D01*
X122700262Y-88954983D01*
X122410914Y-88867210D01*
X122185409Y-88845000D01*
X119834593Y-88845000D01*
X119609088Y-88867210D01*
X119319740Y-88954983D01*
X119053074Y-89097519D01*
X118819340Y-89289339D01*
X118627520Y-89523073D01*
X118484984Y-89789739D01*
X118397211Y-90079087D01*
X118367574Y-90380000D01*
X117500000Y-90380000D01*
X117500000Y-88290000D01*
X131979737Y-88290000D01*
X131766169Y-88378463D01*
G04 #@! TA.AperFunction,Conductor*
D19*
G36*
X131766169Y-88378463D02*
G01*
X131482002Y-88568337D01*
X131240337Y-88810002D01*
X131050463Y-89094169D01*
X130919675Y-89409919D01*
X130853000Y-89745117D01*
X130853000Y-90086883D01*
X130919675Y-90422081D01*
X131050463Y-90737831D01*
X131240337Y-91021998D01*
X131482002Y-91263663D01*
X131766169Y-91453537D01*
X132081919Y-91584325D01*
X132417117Y-91651000D01*
X132758883Y-91651000D01*
X133094081Y-91584325D01*
X133409831Y-91453537D01*
X133693998Y-91263663D01*
X133935663Y-91021998D01*
X134125537Y-90737831D01*
X134256325Y-90422081D01*
X134323000Y-90086883D01*
X134323000Y-89745117D01*
X134256325Y-89409919D01*
X134125537Y-89094169D01*
X133935663Y-88810002D01*
X133693998Y-88568337D01*
X133409831Y-88378463D01*
X133196263Y-88290000D01*
X144755001Y-88290000D01*
X144755000Y-100621292D01*
X144734494Y-100604463D01*
X144624180Y-100545498D01*
X144504482Y-100509188D01*
X144380000Y-100496928D01*
X143795750Y-100500000D01*
X143637000Y-100658750D01*
X143637000Y-102108000D01*
X143657000Y-102108000D01*
X143657000Y-102362000D01*
X143637000Y-102362000D01*
X143637000Y-103811250D01*
X143795750Y-103970000D01*
X144380000Y-103973072D01*
X144504482Y-103960812D01*
X144624180Y-103924502D01*
X144734494Y-103865537D01*
X144755000Y-103848708D01*
X144755000Y-105004000D01*
X119734263Y-105004000D01*
X119947831Y-104915537D01*
X120231998Y-104725663D01*
X120473663Y-104483998D01*
X120663537Y-104199831D01*
X120794325Y-103884081D01*
X120861000Y-103548883D01*
X120861000Y-103207117D01*
X120794325Y-102871919D01*
X120663537Y-102556169D01*
X120473663Y-102272002D01*
X120231998Y-102030337D01*
X119947831Y-101840463D01*
X119632081Y-101709675D01*
X119296883Y-101643000D01*
X118955117Y-101643000D01*
X118619919Y-101709675D01*
X118304169Y-101840463D01*
X118020002Y-102030337D01*
X117778337Y-102272002D01*
X117588463Y-102556169D01*
X117500000Y-102769737D01*
X117500000Y-96007000D01*
X117775001Y-96007000D01*
X117775001Y-97107000D01*
X117829272Y-97404023D01*
X117940447Y-97684751D01*
X118104253Y-97938396D01*
X118314395Y-98155210D01*
X118562797Y-98326862D01*
X118839914Y-98446755D01*
X118945261Y-98471036D01*
X119183001Y-98350378D01*
X119183001Y-96007000D01*
X119437001Y-96007000D01*
X119437001Y-98350378D01*
X119674741Y-98471036D01*
X119780088Y-98446755D01*
X120057205Y-98326862D01*
X120305607Y-98155210D01*
X120515749Y-97938396D01*
X120679555Y-97684751D01*
X120790730Y-97404023D01*
X120845001Y-97107000D01*
X120845001Y-96408212D01*
X125230000Y-96408212D01*
X125230000Y-96631788D01*
X125273617Y-96851067D01*
X125359176Y-97057624D01*
X125476000Y-97232463D01*
X125476001Y-100921330D01*
X125471700Y-100965000D01*
X125488864Y-101139274D01*
X125539698Y-101306852D01*
X125603532Y-101426276D01*
X125622248Y-101461291D01*
X125733342Y-101596659D01*
X125767259Y-101624494D01*
X126502594Y-102359830D01*
X126543617Y-102566067D01*
X126629176Y-102772624D01*
X126753388Y-102958520D01*
X126911480Y-103116612D01*
X127097376Y-103240824D01*
X127303933Y-103326383D01*
X127523212Y-103370000D01*
X127746788Y-103370000D01*
X127966067Y-103326383D01*
X128172624Y-103240824D01*
X128358520Y-103116612D01*
X128516612Y-102958520D01*
X128640824Y-102772624D01*
X128726383Y-102566067D01*
X128770000Y-102346788D01*
X128770000Y-102123212D01*
X128726383Y-101903933D01*
X128640824Y-101697376D01*
X128516612Y-101511480D01*
X128358520Y-101353388D01*
X128172624Y-101229176D01*
X127966067Y-101143617D01*
X127759830Y-101102594D01*
X127254000Y-100596765D01*
X127254000Y-97232463D01*
X127370824Y-97057624D01*
X127456383Y-96851067D01*
X127500000Y-96631788D01*
X127500000Y-96408212D01*
X127456383Y-96188933D01*
X127370824Y-95982376D01*
X127246612Y-95796480D01*
X127092211Y-95642079D01*
X135877699Y-95642079D01*
X135881999Y-95685739D01*
X135882000Y-97357329D01*
X135877699Y-97400999D01*
X135894863Y-97575273D01*
X135945697Y-97742851D01*
X136028247Y-97897290D01*
X136080043Y-97960403D01*
X136139341Y-98032658D01*
X136173258Y-98060493D01*
X136372273Y-98259508D01*
X136413296Y-98465746D01*
X136498855Y-98672303D01*
X136623067Y-98858199D01*
X136781159Y-99016291D01*
X136967055Y-99140503D01*
X137173612Y-99226062D01*
X137392891Y-99269679D01*
X137616467Y-99269679D01*
X137706931Y-99251685D01*
X137700892Y-99271592D01*
X137684428Y-99438750D01*
X137684428Y-99951250D01*
X137700892Y-100118408D01*
X137749650Y-100279142D01*
X137828829Y-100427275D01*
X137871000Y-100478661D01*
X137871000Y-100601851D01*
X137851276Y-100607834D01*
X137589822Y-100747583D01*
X137360655Y-100935655D01*
X137172583Y-101164821D01*
X137032834Y-101426275D01*
X136946776Y-101709968D01*
X136925000Y-101931064D01*
X136925000Y-102538935D01*
X136946776Y-102760031D01*
X137032834Y-103043724D01*
X137172583Y-103305178D01*
X137360655Y-103534345D01*
X137589821Y-103722417D01*
X137851275Y-103862166D01*
X138134968Y-103948224D01*
X138430000Y-103977282D01*
X138725031Y-103948224D01*
X139008724Y-103862166D01*
X139270178Y-103722417D01*
X139499345Y-103534345D01*
X139687417Y-103305179D01*
X139700000Y-103281637D01*
X139712583Y-103305178D01*
X139900655Y-103534345D01*
X140129821Y-103722417D01*
X140391275Y-103862166D01*
X140674968Y-103948224D01*
X140970000Y-103977282D01*
X141265031Y-103948224D01*
X141548724Y-103862166D01*
X141810178Y-103722417D01*
X142037385Y-103535953D01*
X142050498Y-103579180D01*
X142109463Y-103689494D01*
X142188815Y-103786185D01*
X142285506Y-103865537D01*
X142395820Y-103924502D01*
X142515518Y-103960812D01*
X142640000Y-103973072D01*
X143224250Y-103970000D01*
X143383000Y-103811250D01*
X143383000Y-102362000D01*
X143363000Y-102362000D01*
X143363000Y-102108000D01*
X143383000Y-102108000D01*
X143383000Y-100658750D01*
X143224250Y-100500000D01*
X142640000Y-100496928D01*
X142515518Y-100509188D01*
X142395820Y-100545498D01*
X142285506Y-100604463D01*
X142188815Y-100683815D01*
X142109463Y-100780506D01*
X142050498Y-100890820D01*
X142037385Y-100934047D01*
X141810179Y-100747583D01*
X141548725Y-100607834D01*
X141297248Y-100531549D01*
X141303037Y-100524494D01*
X141362002Y-100414180D01*
X141398312Y-100294482D01*
X141410572Y-100170000D01*
X141407500Y-99980750D01*
X141248750Y-99822000D01*
X140462000Y-99822000D01*
X140462000Y-99842000D01*
X140208000Y-99842000D01*
X140208000Y-99822000D01*
X140188000Y-99822000D01*
X140188000Y-99568000D01*
X140208000Y-99568000D01*
X140208000Y-98743750D01*
X140462000Y-98743750D01*
X140462000Y-99568000D01*
X141248750Y-99568000D01*
X141407500Y-99409250D01*
X141410572Y-99220000D01*
X141398312Y-99095518D01*
X141362002Y-98975820D01*
X141303037Y-98865506D01*
X141223685Y-98768815D01*
X141126994Y-98689463D01*
X141016680Y-98630498D01*
X140896982Y-98594188D01*
X140772500Y-98581928D01*
X140620750Y-98585000D01*
X140462000Y-98743750D01*
X140208000Y-98743750D01*
X140049250Y-98585000D01*
X139897500Y-98581928D01*
X139773018Y-98594188D01*
X139653320Y-98630498D01*
X139543006Y-98689463D01*
X139476430Y-98744100D01*
X139454775Y-98726329D01*
X139306642Y-98647150D01*
X139145908Y-98598392D01*
X138978750Y-98581928D01*
X138547938Y-98581928D01*
X138596062Y-98465746D01*
X138639679Y-98246467D01*
X138639679Y-98022891D01*
X138600563Y-97826240D01*
X139233365Y-97826240D01*
X139314025Y-98077868D01*
X139582329Y-98206267D01*
X139870526Y-98279855D01*
X140167543Y-98295804D01*
X140461963Y-98253501D01*
X140742474Y-98154572D01*
X140885975Y-98077868D01*
X140966635Y-97826240D01*
X140100000Y-96959605D01*
X139233365Y-97826240D01*
X138600563Y-97826240D01*
X138596062Y-97803612D01*
X138562589Y-97722801D01*
X138815253Y-97618144D01*
X138863763Y-97585731D01*
X139053760Y-97646635D01*
X139920395Y-96780000D01*
X139906253Y-96765858D01*
X140085858Y-96586253D01*
X140100000Y-96600395D01*
X140114143Y-96586253D01*
X140293748Y-96765858D01*
X140279605Y-96780000D01*
X141146240Y-97646635D01*
X141397868Y-97565975D01*
X141526267Y-97297671D01*
X141599855Y-97009474D01*
X141615804Y-96712457D01*
X141593492Y-96557169D01*
X141684747Y-96618144D01*
X141959549Y-96731971D01*
X142251278Y-96790000D01*
X142548722Y-96790000D01*
X142840451Y-96731971D01*
X143115253Y-96618144D01*
X143362569Y-96452893D01*
X143572893Y-96242569D01*
X143738144Y-95995253D01*
X143851971Y-95720451D01*
X143910000Y-95428722D01*
X143910000Y-95131278D01*
X143851971Y-94839549D01*
X143738144Y-94564747D01*
X143572893Y-94317431D01*
X143385462Y-94130000D01*
X143572893Y-93942569D01*
X143738144Y-93695253D01*
X143851971Y-93420451D01*
X143910000Y-93128722D01*
X143910000Y-92831278D01*
X143851971Y-92539549D01*
X143738144Y-92264747D01*
X143572893Y-92017431D01*
X143362569Y-91807107D01*
X143115253Y-91641856D01*
X142840451Y-91528029D01*
X142548722Y-91470000D01*
X142251278Y-91470000D01*
X141959549Y-91528029D01*
X141684747Y-91641856D01*
X141488901Y-91772716D01*
X141551971Y-91620451D01*
X141610000Y-91328722D01*
X141610000Y-91031278D01*
X141551971Y-90739549D01*
X141438144Y-90464747D01*
X141272893Y-90217431D01*
X141062569Y-90007107D01*
X140815253Y-89841856D01*
X140540451Y-89728029D01*
X140248722Y-89670000D01*
X139951278Y-89670000D01*
X139659549Y-89728029D01*
X139384747Y-89841856D01*
X139137431Y-90007107D01*
X138927107Y-90217431D01*
X138835106Y-90355121D01*
X138815253Y-90341856D01*
X138540451Y-90228029D01*
X138248722Y-90170000D01*
X137951278Y-90170000D01*
X137659549Y-90228029D01*
X137384747Y-90341856D01*
X137137431Y-90507107D01*
X136927107Y-90717431D01*
X136761856Y-90964747D01*
X136648029Y-91239549D01*
X136590000Y-91531278D01*
X136590000Y-91828722D01*
X136648029Y-92120451D01*
X136761856Y-92395253D01*
X136927107Y-92642569D01*
X137137431Y-92852893D01*
X137384747Y-93018144D01*
X137659549Y-93131971D01*
X137951278Y-93190000D01*
X137965843Y-93190000D01*
X136173263Y-94982580D01*
X136139340Y-95010420D01*
X136028246Y-95145789D01*
X135945696Y-95300229D01*
X135916997Y-95394838D01*
X135906751Y-95428617D01*
X135894863Y-95467806D01*
X135881999Y-95598413D01*
X135881999Y-95598419D01*
X135877699Y-95642079D01*
X127092211Y-95642079D01*
X127088520Y-95638388D01*
X126902624Y-95514176D01*
X126696067Y-95428617D01*
X126476788Y-95385000D01*
X126253212Y-95385000D01*
X126033933Y-95428617D01*
X125827376Y-95514176D01*
X125641480Y-95638388D01*
X125483388Y-95796480D01*
X125359176Y-95982376D01*
X125273617Y-96188933D01*
X125230000Y-96408212D01*
X120845001Y-96408212D01*
X120845001Y-96007000D01*
X119437001Y-96007000D01*
X119183001Y-96007000D01*
X117775001Y-96007000D01*
X117500000Y-96007000D01*
X117500000Y-94653000D01*
X117775001Y-94653000D01*
X117775001Y-95753000D01*
X119183001Y-95753000D01*
X119183001Y-93409622D01*
X119437001Y-93409622D01*
X119437001Y-95753000D01*
X120845001Y-95753000D01*
X120845001Y-94653000D01*
X120790730Y-94355977D01*
X120679555Y-94075249D01*
X120515749Y-93821604D01*
X120305607Y-93604790D01*
X120057205Y-93433138D01*
X119780088Y-93313245D01*
X119674741Y-93288964D01*
X119437001Y-93409622D01*
X119183001Y-93409622D01*
X118945261Y-93288964D01*
X118839914Y-93313245D01*
X118562797Y-93433138D01*
X118314395Y-93604790D01*
X118104253Y-93821604D01*
X117940447Y-94075249D01*
X117829272Y-94355977D01*
X117775001Y-94653000D01*
X117500000Y-94653000D01*
X117500000Y-90380000D01*
X118367574Y-90380000D01*
X118397211Y-90680913D01*
X118484984Y-90970261D01*
X118627520Y-91236927D01*
X118819340Y-91470661D01*
X119053074Y-91662481D01*
X119319740Y-91805017D01*
X119609088Y-91892790D01*
X119834593Y-91915000D01*
X122077321Y-91915000D01*
X121997211Y-92179087D01*
X121967574Y-92480000D01*
X121997211Y-92780913D01*
X122084984Y-93070261D01*
X122227520Y-93336927D01*
X122419340Y-93570661D01*
X122653074Y-93762481D01*
X122919740Y-93905017D01*
X123209088Y-93992790D01*
X123434593Y-94015000D01*
X125785409Y-94015000D01*
X126010914Y-93992790D01*
X126300262Y-93905017D01*
X126566928Y-93762481D01*
X126800662Y-93570661D01*
X126992482Y-93336927D01*
X127135018Y-93070261D01*
X127222791Y-92780913D01*
X127252428Y-92480000D01*
X127222791Y-92179087D01*
X127135018Y-91889739D01*
X126992482Y-91623073D01*
X126800662Y-91389339D01*
X126566928Y-91197519D01*
X126300262Y-91054983D01*
X126010914Y-90967210D01*
X125785409Y-90945000D01*
X123542681Y-90945000D01*
X123622791Y-90680913D01*
X123652428Y-90380000D01*
X123622791Y-90079087D01*
X123535018Y-89789739D01*
X123392482Y-89523073D01*
X123200662Y-89289339D01*
X122966928Y-89097519D01*
X122700262Y-88954983D01*
X122410914Y-88867210D01*
X122185409Y-88845000D01*
X119834593Y-88845000D01*
X119609088Y-88867210D01*
X119319740Y-88954983D01*
X119053074Y-89097519D01*
X118819340Y-89289339D01*
X118627520Y-89523073D01*
X118484984Y-89789739D01*
X118397211Y-90079087D01*
X118367574Y-90380000D01*
X117500000Y-90380000D01*
X117500000Y-88290000D01*
X131979737Y-88290000D01*
X131766169Y-88378463D01*
G37*
G04 #@! TD.AperFunction*
G04 #@! TD*
M02*
