G04 #@! TF.GenerationSoftware,KiCad,Pcbnew,5.1.9-73d0e3b20d~88~ubuntu20.04.1*
G04 #@! TF.CreationDate,2021-01-12T16:18:54+00:00*
G04 #@! TF.ProjectId,LEDsupply,4c454473-7570-4706-9c79-2e6b69636164,rev?*
G04 #@! TF.SameCoordinates,Original*
G04 #@! TF.FileFunction,Copper,L1,Top*
G04 #@! TF.FilePolarity,Positive*
%FSLAX46Y46*%
G04 Gerber Fmt 4.6, Leading zero omitted, Abs format (unit mm)*
G04 Created by KiCad (PCBNEW 5.1.9-73d0e3b20d~88~ubuntu20.04.1) date 2021-01-12 16:18:54*
%MOMM*%
%LPD*%
G01*
G04 APERTURE LIST*
G04 #@! TA.AperFunction,ComponentPad*
%ADD10O,1.740000X2.200000*%
G04 #@! TD*
G04 #@! TA.AperFunction,ComponentPad*
%ADD11C,1.750000*%
G04 #@! TD*
G04 #@! TA.AperFunction,ComponentPad*
%ADD12O,4.000000X1.800000*%
G04 #@! TD*
G04 #@! TA.AperFunction,ComponentPad*
%ADD13O,1.800000X4.000000*%
G04 #@! TD*
G04 #@! TA.AperFunction,SMDPad,CuDef*
%ADD14R,0.650000X0.400000*%
G04 #@! TD*
G04 #@! TA.AperFunction,ViaPad*
%ADD15C,1.000000*%
G04 #@! TD*
G04 #@! TA.AperFunction,Conductor*
%ADD16C,1.024000*%
G04 #@! TD*
G04 #@! TA.AperFunction,Conductor*
%ADD17C,0.381000*%
G04 #@! TD*
G04 #@! TA.AperFunction,Conductor*
%ADD18C,0.508000*%
G04 #@! TD*
G04 #@! TA.AperFunction,Conductor*
%ADD19C,0.254000*%
G04 #@! TD*
G04 #@! TA.AperFunction,Conductor*
%ADD20C,0.100000*%
G04 #@! TD*
G04 APERTURE END LIST*
G04 #@! TO.P,R2,2*
G04 #@! TO.N,/SDA*
G04 #@! TA.AperFunction,SMDPad,CuDef*
G36*
G01*
X135032000Y-93723750D02*
X135032000Y-94236250D01*
G75*
G02*
X134813250Y-94455000I-218750J0D01*
G01*
X134375750Y-94455000D01*
G75*
G02*
X134157000Y-94236250I0J218750D01*
G01*
X134157000Y-93723750D01*
G75*
G02*
X134375750Y-93505000I218750J0D01*
G01*
X134813250Y-93505000D01*
G75*
G02*
X135032000Y-93723750I0J-218750D01*
G01*
G37*
G04 #@! TD.AperFunction*
G04 #@! TO.P,R2,1*
G04 #@! TO.N,+5V*
G04 #@! TA.AperFunction,SMDPad,CuDef*
G36*
G01*
X136607000Y-93723750D02*
X136607000Y-94236250D01*
G75*
G02*
X136388250Y-94455000I-218750J0D01*
G01*
X135950750Y-94455000D01*
G75*
G02*
X135732000Y-94236250I0J218750D01*
G01*
X135732000Y-93723750D01*
G75*
G02*
X135950750Y-93505000I218750J0D01*
G01*
X136388250Y-93505000D01*
G75*
G02*
X136607000Y-93723750I0J-218750D01*
G01*
G37*
G04 #@! TD.AperFunction*
G04 #@! TD*
G04 #@! TO.P,R1,2*
G04 #@! TO.N,/SCL*
G04 #@! TA.AperFunction,SMDPad,CuDef*
G36*
G01*
X134905000Y-98803750D02*
X134905000Y-99316250D01*
G75*
G02*
X134686250Y-99535000I-218750J0D01*
G01*
X134248750Y-99535000D01*
G75*
G02*
X134030000Y-99316250I0J218750D01*
G01*
X134030000Y-98803750D01*
G75*
G02*
X134248750Y-98585000I218750J0D01*
G01*
X134686250Y-98585000D01*
G75*
G02*
X134905000Y-98803750I0J-218750D01*
G01*
G37*
G04 #@! TD.AperFunction*
G04 #@! TO.P,R1,1*
G04 #@! TO.N,+5V*
G04 #@! TA.AperFunction,SMDPad,CuDef*
G36*
G01*
X136480000Y-98803750D02*
X136480000Y-99316250D01*
G75*
G02*
X136261250Y-99535000I-218750J0D01*
G01*
X135823750Y-99535000D01*
G75*
G02*
X135605000Y-99316250I0J218750D01*
G01*
X135605000Y-98803750D01*
G75*
G02*
X135823750Y-98585000I218750J0D01*
G01*
X136261250Y-98585000D01*
G75*
G02*
X136480000Y-98803750I0J-218750D01*
G01*
G37*
G04 #@! TD.AperFunction*
G04 #@! TD*
D10*
G04 #@! TO.P,JP3,3*
G04 #@! TO.N,/VREGOUT*
X138430000Y-102235000D03*
G04 #@! TO.P,JP3,2*
G04 #@! TO.N,/PWM*
X140970000Y-102235000D03*
G04 #@! TO.P,JP3,1*
G04 #@! TO.N,GND*
G04 #@! TA.AperFunction,ComponentPad*
G36*
G01*
X144380000Y-101384999D02*
X144380000Y-103085001D01*
G75*
G02*
X144130001Y-103335000I-249999J0D01*
G01*
X142889999Y-103335000D01*
G75*
G02*
X142640000Y-103085001I0J249999D01*
G01*
X142640000Y-101384999D01*
G75*
G02*
X142889999Y-101135000I249999J0D01*
G01*
X144130001Y-101135000D01*
G75*
G02*
X144380000Y-101384999I0J-249999D01*
G01*
G37*
G04 #@! TD.AperFunction*
G04 #@! TD*
D11*
G04 #@! TO.P,JP1,1*
G04 #@! TO.N,/SDA*
X142400000Y-95280000D03*
G04 #@! TO.P,JP1,2*
G04 #@! TO.N,/PWM*
X142400000Y-92980000D03*
G04 #@! TO.P,JP1,3*
G04 #@! TO.N,GND*
X140100000Y-96780000D03*
G04 #@! TO.P,JP1,4*
G04 #@! TO.N,+5V*
X140100000Y-91180000D03*
G04 #@! TO.P,JP1,5*
G04 #@! TO.N,/SCL*
X138100000Y-96280000D03*
G04 #@! TO.P,JP1,6*
G04 #@! TO.N,/~ERR*
X138100000Y-91680000D03*
G04 #@! TD*
G04 #@! TO.P,C1,2*
G04 #@! TO.N,GND*
G04 #@! TA.AperFunction,SMDPad,CuDef*
G36*
G01*
X122933750Y-98140000D02*
X123446250Y-98140000D01*
G75*
G02*
X123665000Y-98358750I0J-218750D01*
G01*
X123665000Y-98796250D01*
G75*
G02*
X123446250Y-99015000I-218750J0D01*
G01*
X122933750Y-99015000D01*
G75*
G02*
X122715000Y-98796250I0J218750D01*
G01*
X122715000Y-98358750D01*
G75*
G02*
X122933750Y-98140000I218750J0D01*
G01*
G37*
G04 #@! TD.AperFunction*
G04 #@! TO.P,C1,1*
G04 #@! TO.N,+24V*
G04 #@! TA.AperFunction,SMDPad,CuDef*
G36*
G01*
X122933750Y-96565000D02*
X123446250Y-96565000D01*
G75*
G02*
X123665000Y-96783750I0J-218750D01*
G01*
X123665000Y-97221250D01*
G75*
G02*
X123446250Y-97440000I-218750J0D01*
G01*
X122933750Y-97440000D01*
G75*
G02*
X122715000Y-97221250I0J218750D01*
G01*
X122715000Y-96783750D01*
G75*
G02*
X122933750Y-96565000I218750J0D01*
G01*
G37*
G04 #@! TD.AperFunction*
G04 #@! TD*
G04 #@! TO.P,C2,2*
G04 #@! TO.N,GND*
G04 #@! TA.AperFunction,SMDPad,CuDef*
G36*
G01*
X135511250Y-102520000D02*
X134998750Y-102520000D01*
G75*
G02*
X134780000Y-102301250I0J218750D01*
G01*
X134780000Y-101863750D01*
G75*
G02*
X134998750Y-101645000I218750J0D01*
G01*
X135511250Y-101645000D01*
G75*
G02*
X135730000Y-101863750I0J-218750D01*
G01*
X135730000Y-102301250D01*
G75*
G02*
X135511250Y-102520000I-218750J0D01*
G01*
G37*
G04 #@! TD.AperFunction*
G04 #@! TO.P,C2,1*
G04 #@! TO.N,+5V*
G04 #@! TA.AperFunction,SMDPad,CuDef*
G36*
G01*
X135511250Y-104095000D02*
X134998750Y-104095000D01*
G75*
G02*
X134780000Y-103876250I0J218750D01*
G01*
X134780000Y-103438750D01*
G75*
G02*
X134998750Y-103220000I218750J0D01*
G01*
X135511250Y-103220000D01*
G75*
G02*
X135730000Y-103438750I0J-218750D01*
G01*
X135730000Y-103876250D01*
G75*
G02*
X135511250Y-104095000I-218750J0D01*
G01*
G37*
G04 #@! TD.AperFunction*
G04 #@! TD*
G04 #@! TO.P,C3,1*
G04 #@! TO.N,/VREGOUT*
G04 #@! TA.AperFunction,SMDPad,CuDef*
G36*
G01*
X124505000Y-102491250D02*
X124505000Y-101978750D01*
G75*
G02*
X124723750Y-101760000I218750J0D01*
G01*
X125161250Y-101760000D01*
G75*
G02*
X125380000Y-101978750I0J-218750D01*
G01*
X125380000Y-102491250D01*
G75*
G02*
X125161250Y-102710000I-218750J0D01*
G01*
X124723750Y-102710000D01*
G75*
G02*
X124505000Y-102491250I0J218750D01*
G01*
G37*
G04 #@! TD.AperFunction*
G04 #@! TO.P,C3,2*
G04 #@! TO.N,Net-(C3-Pad2)*
G04 #@! TA.AperFunction,SMDPad,CuDef*
G36*
G01*
X126080000Y-102491250D02*
X126080000Y-101978750D01*
G75*
G02*
X126298750Y-101760000I218750J0D01*
G01*
X126736250Y-101760000D01*
G75*
G02*
X126955000Y-101978750I0J-218750D01*
G01*
X126955000Y-102491250D01*
G75*
G02*
X126736250Y-102710000I-218750J0D01*
G01*
X126298750Y-102710000D01*
G75*
G02*
X126080000Y-102491250I0J218750D01*
G01*
G37*
G04 #@! TD.AperFunction*
G04 #@! TD*
G04 #@! TO.P,C4,1*
G04 #@! TO.N,/VREGOUT*
G04 #@! TA.AperFunction,SMDPad,CuDef*
G36*
G01*
X123180000Y-103755000D02*
X121930000Y-103755000D01*
G75*
G02*
X121680000Y-103505000I0J250000D01*
G01*
X121680000Y-102755000D01*
G75*
G02*
X121930000Y-102505000I250000J0D01*
G01*
X123180000Y-102505000D01*
G75*
G02*
X123430000Y-102755000I0J-250000D01*
G01*
X123430000Y-103505000D01*
G75*
G02*
X123180000Y-103755000I-250000J0D01*
G01*
G37*
G04 #@! TD.AperFunction*
G04 #@! TO.P,C4,2*
G04 #@! TO.N,GND*
G04 #@! TA.AperFunction,SMDPad,CuDef*
G36*
G01*
X123180000Y-100955000D02*
X121930000Y-100955000D01*
G75*
G02*
X121680000Y-100705000I0J250000D01*
G01*
X121680000Y-99955000D01*
G75*
G02*
X121930000Y-99705000I250000J0D01*
G01*
X123180000Y-99705000D01*
G75*
G02*
X123430000Y-99955000I0J-250000D01*
G01*
X123430000Y-100705000D01*
G75*
G02*
X123180000Y-100955000I-250000J0D01*
G01*
G37*
G04 #@! TD.AperFunction*
G04 #@! TD*
D12*
G04 #@! TO.P,JP2,1*
G04 #@! TO.N,+24V*
X121010001Y-90380000D03*
G04 #@! TO.P,JP2,2*
G04 #@! TO.N,N/C*
X124610001Y-92480000D03*
D13*
G04 #@! TO.P,JP2,3*
G04 #@! TO.N,GND*
X119310001Y-95880000D03*
G04 #@! TD*
G04 #@! TO.P,R3,1*
G04 #@! TO.N,+24V*
G04 #@! TA.AperFunction,SMDPad,CuDef*
G36*
G01*
X127197500Y-92966250D02*
X127197500Y-92453750D01*
G75*
G02*
X127416250Y-92235000I218750J0D01*
G01*
X127853750Y-92235000D01*
G75*
G02*
X128072500Y-92453750I0J-218750D01*
G01*
X128072500Y-92966250D01*
G75*
G02*
X127853750Y-93185000I-218750J0D01*
G01*
X127416250Y-93185000D01*
G75*
G02*
X127197500Y-92966250I0J218750D01*
G01*
G37*
G04 #@! TD.AperFunction*
G04 #@! TO.P,R3,2*
G04 #@! TO.N,/~ERR*
G04 #@! TA.AperFunction,SMDPad,CuDef*
G36*
G01*
X128772500Y-92966250D02*
X128772500Y-92453750D01*
G75*
G02*
X128991250Y-92235000I218750J0D01*
G01*
X129428750Y-92235000D01*
G75*
G02*
X129647500Y-92453750I0J-218750D01*
G01*
X129647500Y-92966250D01*
G75*
G02*
X129428750Y-93185000I-218750J0D01*
G01*
X128991250Y-93185000D01*
G75*
G02*
X128772500Y-92966250I0J218750D01*
G01*
G37*
G04 #@! TD.AperFunction*
G04 #@! TD*
G04 #@! TO.P,R4,2*
G04 #@! TO.N,GND*
G04 #@! TA.AperFunction,SMDPad,CuDef*
G36*
G01*
X130553750Y-98292500D02*
X131066250Y-98292500D01*
G75*
G02*
X131285000Y-98511250I0J-218750D01*
G01*
X131285000Y-98948750D01*
G75*
G02*
X131066250Y-99167500I-218750J0D01*
G01*
X130553750Y-99167500D01*
G75*
G02*
X130335000Y-98948750I0J218750D01*
G01*
X130335000Y-98511250D01*
G75*
G02*
X130553750Y-98292500I218750J0D01*
G01*
G37*
G04 #@! TD.AperFunction*
G04 #@! TO.P,R4,1*
G04 #@! TO.N,/~ERR*
G04 #@! TA.AperFunction,SMDPad,CuDef*
G36*
G01*
X130553750Y-96717500D02*
X131066250Y-96717500D01*
G75*
G02*
X131285000Y-96936250I0J-218750D01*
G01*
X131285000Y-97373750D01*
G75*
G02*
X131066250Y-97592500I-218750J0D01*
G01*
X130553750Y-97592500D01*
G75*
G02*
X130335000Y-97373750I0J218750D01*
G01*
X130335000Y-96936250D01*
G75*
G02*
X130553750Y-96717500I218750J0D01*
G01*
G37*
G04 #@! TD.AperFunction*
G04 #@! TD*
G04 #@! TO.P,R5,2*
G04 #@! TO.N,Net-(R5-Pad2)*
G04 #@! TA.AperFunction,SMDPad,CuDef*
G36*
G01*
X129255000Y-103761250D02*
X129255000Y-103248750D01*
G75*
G02*
X129473750Y-103030000I218750J0D01*
G01*
X129911250Y-103030000D01*
G75*
G02*
X130130000Y-103248750I0J-218750D01*
G01*
X130130000Y-103761250D01*
G75*
G02*
X129911250Y-103980000I-218750J0D01*
G01*
X129473750Y-103980000D01*
G75*
G02*
X129255000Y-103761250I0J218750D01*
G01*
G37*
G04 #@! TD.AperFunction*
G04 #@! TO.P,R5,1*
G04 #@! TO.N,Net-(C3-Pad2)*
G04 #@! TA.AperFunction,SMDPad,CuDef*
G36*
G01*
X127680000Y-103761250D02*
X127680000Y-103248750D01*
G75*
G02*
X127898750Y-103030000I218750J0D01*
G01*
X128336250Y-103030000D01*
G75*
G02*
X128555000Y-103248750I0J-218750D01*
G01*
X128555000Y-103761250D01*
G75*
G02*
X128336250Y-103980000I-218750J0D01*
G01*
X127898750Y-103980000D01*
G75*
G02*
X127680000Y-103761250I0J218750D01*
G01*
G37*
G04 #@! TD.AperFunction*
G04 #@! TD*
G04 #@! TO.P,R6,1*
G04 #@! TO.N,/VREGOUT*
G04 #@! TA.AperFunction,SMDPad,CuDef*
G36*
G01*
X124505000Y-103761250D02*
X124505000Y-103248750D01*
G75*
G02*
X124723750Y-103030000I218750J0D01*
G01*
X125161250Y-103030000D01*
G75*
G02*
X125380000Y-103248750I0J-218750D01*
G01*
X125380000Y-103761250D01*
G75*
G02*
X125161250Y-103980000I-218750J0D01*
G01*
X124723750Y-103980000D01*
G75*
G02*
X124505000Y-103761250I0J218750D01*
G01*
G37*
G04 #@! TD.AperFunction*
G04 #@! TO.P,R6,2*
G04 #@! TO.N,Net-(C3-Pad2)*
G04 #@! TA.AperFunction,SMDPad,CuDef*
G36*
G01*
X126080000Y-103761250D02*
X126080000Y-103248750D01*
G75*
G02*
X126298750Y-103030000I218750J0D01*
G01*
X126736250Y-103030000D01*
G75*
G02*
X126955000Y-103248750I0J-218750D01*
G01*
X126955000Y-103761250D01*
G75*
G02*
X126736250Y-103980000I-218750J0D01*
G01*
X126298750Y-103980000D01*
G75*
G02*
X126080000Y-103761250I0J218750D01*
G01*
G37*
G04 #@! TD.AperFunction*
G04 #@! TD*
G04 #@! TO.P,U1,1*
G04 #@! TO.N,/VREGOUT*
G04 #@! TA.AperFunction,SMDPad,CuDef*
G36*
G01*
X125245000Y-101240000D02*
X124945000Y-101240000D01*
G75*
G02*
X124795000Y-101090000I0J150000D01*
G01*
X124795000Y-99640000D01*
G75*
G02*
X124945000Y-99490000I150000J0D01*
G01*
X125245000Y-99490000D01*
G75*
G02*
X125395000Y-99640000I0J-150000D01*
G01*
X125395000Y-101090000D01*
G75*
G02*
X125245000Y-101240000I-150000J0D01*
G01*
G37*
G04 #@! TD.AperFunction*
G04 #@! TO.P,U1,2*
G04 #@! TO.N,N/C*
G04 #@! TA.AperFunction,SMDPad,CuDef*
G36*
G01*
X126515000Y-101240000D02*
X126215000Y-101240000D01*
G75*
G02*
X126065000Y-101090000I0J150000D01*
G01*
X126065000Y-99640000D01*
G75*
G02*
X126215000Y-99490000I150000J0D01*
G01*
X126515000Y-99490000D01*
G75*
G02*
X126665000Y-99640000I0J-150000D01*
G01*
X126665000Y-101090000D01*
G75*
G02*
X126515000Y-101240000I-150000J0D01*
G01*
G37*
G04 #@! TD.AperFunction*
G04 #@! TO.P,U1,3*
G04 #@! TO.N,GND*
G04 #@! TA.AperFunction,SMDPad,CuDef*
G36*
G01*
X127785000Y-101240000D02*
X127485000Y-101240000D01*
G75*
G02*
X127335000Y-101090000I0J150000D01*
G01*
X127335000Y-99640000D01*
G75*
G02*
X127485000Y-99490000I150000J0D01*
G01*
X127785000Y-99490000D01*
G75*
G02*
X127935000Y-99640000I0J-150000D01*
G01*
X127935000Y-101090000D01*
G75*
G02*
X127785000Y-101240000I-150000J0D01*
G01*
G37*
G04 #@! TD.AperFunction*
G04 #@! TO.P,U1,4*
G04 #@! TA.AperFunction,SMDPad,CuDef*
G36*
G01*
X129055000Y-101240000D02*
X128755000Y-101240000D01*
G75*
G02*
X128605000Y-101090000I0J150000D01*
G01*
X128605000Y-99640000D01*
G75*
G02*
X128755000Y-99490000I150000J0D01*
G01*
X129055000Y-99490000D01*
G75*
G02*
X129205000Y-99640000I0J-150000D01*
G01*
X129205000Y-101090000D01*
G75*
G02*
X129055000Y-101240000I-150000J0D01*
G01*
G37*
G04 #@! TD.AperFunction*
G04 #@! TO.P,U1,5*
G04 #@! TO.N,/~ERR*
G04 #@! TA.AperFunction,SMDPad,CuDef*
G36*
G01*
X129055000Y-96090000D02*
X128755000Y-96090000D01*
G75*
G02*
X128605000Y-95940000I0J150000D01*
G01*
X128605000Y-94490000D01*
G75*
G02*
X128755000Y-94340000I150000J0D01*
G01*
X129055000Y-94340000D01*
G75*
G02*
X129205000Y-94490000I0J-150000D01*
G01*
X129205000Y-95940000D01*
G75*
G02*
X129055000Y-96090000I-150000J0D01*
G01*
G37*
G04 #@! TD.AperFunction*
G04 #@! TO.P,U1,6*
G04 #@! TO.N,N/C*
G04 #@! TA.AperFunction,SMDPad,CuDef*
G36*
G01*
X127785000Y-96090000D02*
X127485000Y-96090000D01*
G75*
G02*
X127335000Y-95940000I0J150000D01*
G01*
X127335000Y-94490000D01*
G75*
G02*
X127485000Y-94340000I150000J0D01*
G01*
X127785000Y-94340000D01*
G75*
G02*
X127935000Y-94490000I0J-150000D01*
G01*
X127935000Y-95940000D01*
G75*
G02*
X127785000Y-96090000I-150000J0D01*
G01*
G37*
G04 #@! TD.AperFunction*
G04 #@! TO.P,U1,7*
G04 #@! TO.N,Net-(C3-Pad2)*
G04 #@! TA.AperFunction,SMDPad,CuDef*
G36*
G01*
X126515000Y-96090000D02*
X126215000Y-96090000D01*
G75*
G02*
X126065000Y-95940000I0J150000D01*
G01*
X126065000Y-94490000D01*
G75*
G02*
X126215000Y-94340000I150000J0D01*
G01*
X126515000Y-94340000D01*
G75*
G02*
X126665000Y-94490000I0J-150000D01*
G01*
X126665000Y-95940000D01*
G75*
G02*
X126515000Y-96090000I-150000J0D01*
G01*
G37*
G04 #@! TD.AperFunction*
G04 #@! TO.P,U1,8*
G04 #@! TO.N,+24V*
G04 #@! TA.AperFunction,SMDPad,CuDef*
G36*
G01*
X125245000Y-96090000D02*
X124945000Y-96090000D01*
G75*
G02*
X124795000Y-95940000I0J150000D01*
G01*
X124795000Y-94490000D01*
G75*
G02*
X124945000Y-94340000I150000J0D01*
G01*
X125245000Y-94340000D01*
G75*
G02*
X125395000Y-94490000I0J-150000D01*
G01*
X125395000Y-95940000D01*
G75*
G02*
X125245000Y-96090000I-150000J0D01*
G01*
G37*
G04 #@! TD.AperFunction*
G04 #@! TD*
D14*
G04 #@! TO.P,U2,1*
G04 #@! TO.N,+5V*
X133665000Y-102885000D03*
G04 #@! TO.P,U2,3*
G04 #@! TO.N,/SCL*
X133665000Y-101585000D03*
G04 #@! TO.P,U2,5*
G04 #@! TO.N,Net-(R5-Pad2)*
X131765000Y-102235000D03*
G04 #@! TO.P,U2,2*
G04 #@! TO.N,GND*
X133665000Y-102235000D03*
G04 #@! TO.P,U2,4*
G04 #@! TO.N,/SDA*
X131765000Y-101585000D03*
G04 #@! TO.P,U2,6*
G04 #@! TO.N,N/C*
X131765000Y-102885000D03*
G04 #@! TD*
D15*
G04 #@! TO.N,GND*
X129557500Y-99712500D03*
X135230010Y-101600000D03*
G04 #@! TO.N,+5V*
X137504679Y-98134679D03*
G04 #@! TO.N,Net-(C3-Pad2)*
X127635000Y-102235000D03*
X126365000Y-96520000D03*
G04 #@! TD*
D16*
G04 #@! TO.N,GND*
X127635000Y-99540932D02*
X127635000Y-100365000D01*
X126671568Y-98577500D02*
X127635000Y-99540932D01*
X123825000Y-98577500D02*
X126671568Y-98577500D01*
X127635000Y-100365000D02*
X128905000Y-100365000D01*
X122007501Y-98577500D02*
X119310001Y-95880000D01*
X122555000Y-99060000D02*
X122072500Y-98577500D01*
X122555000Y-100330000D02*
X122555000Y-99060000D01*
X122072500Y-98577500D02*
X122007501Y-98577500D01*
X123825000Y-98577500D02*
X122072500Y-98577500D01*
X129557500Y-99712500D02*
X128905000Y-100365000D01*
D17*
X135230010Y-102057510D02*
X135255000Y-102082500D01*
X135230010Y-101600000D02*
X135230010Y-102057510D01*
X135102500Y-102235000D02*
X135255000Y-102082500D01*
X133665000Y-102235000D02*
X135102500Y-102235000D01*
D16*
X130540000Y-98730000D02*
X129557500Y-99712500D01*
X130810000Y-98730000D02*
X130540000Y-98730000D01*
D18*
G04 #@! TO.N,+24V*
X126459010Y-93885990D02*
X127635000Y-92710000D01*
X125549010Y-93885990D02*
X126459010Y-93885990D01*
X125095000Y-94340000D02*
X125549010Y-93885990D01*
X125095000Y-95215000D02*
X125095000Y-94340000D01*
D16*
X121010001Y-92259726D02*
X121010001Y-90380000D01*
X125095000Y-95215000D02*
X123965275Y-95215000D01*
X123825000Y-95074724D02*
X123595138Y-94844862D01*
X123965275Y-95215000D02*
X123595138Y-94844862D01*
X123307500Y-97002500D02*
X125095000Y-95215000D01*
X123190000Y-97002500D02*
X123307500Y-97002500D01*
X123190000Y-94615000D02*
X123277637Y-94527363D01*
X123190000Y-97002500D02*
X123190000Y-94615000D01*
X123277637Y-94527363D02*
X121010001Y-92259726D01*
X123595138Y-94844862D02*
X123277637Y-94527363D01*
D17*
G04 #@! TO.N,+5V*
X134437500Y-103657500D02*
X133665000Y-102885000D01*
X135255000Y-103657500D02*
X134437500Y-103657500D01*
D18*
X136184011Y-99201511D02*
X136042500Y-99060000D01*
X135255000Y-103657500D02*
X136184011Y-102728489D01*
X137504679Y-98134679D02*
X136285347Y-99354011D01*
X136285347Y-99354011D02*
X136184011Y-99354011D01*
X136184011Y-99354011D02*
X136184011Y-99201511D01*
X136184011Y-102728489D02*
X136184011Y-99354011D01*
D17*
X140100000Y-92417436D02*
X140100000Y-91180000D01*
X138537436Y-93980000D02*
X140100000Y-92417436D01*
X136169500Y-93980000D02*
X138537436Y-93980000D01*
D16*
G04 #@! TO.N,/VREGOUT*
X124047500Y-103130000D02*
X124942500Y-102235000D01*
X122555000Y-103130000D02*
X124047500Y-103130000D01*
X124422500Y-103505000D02*
X124047500Y-103130000D01*
X124942500Y-103505000D02*
X124422500Y-103505000D01*
X125095000Y-102082500D02*
X124942500Y-102235000D01*
X125095000Y-100365000D02*
X125095000Y-102082500D01*
X125724510Y-104807010D02*
X124422500Y-103505000D01*
X124942500Y-102235000D02*
X124942500Y-103505000D01*
X125724510Y-104807010D02*
X137127990Y-104807010D01*
X138430000Y-103505000D02*
X138430000Y-102235000D01*
X137127990Y-104807010D02*
X138430000Y-103505000D01*
D18*
G04 #@! TO.N,Net-(C3-Pad2)*
X126517500Y-102235000D02*
X127635000Y-102235000D01*
X126365000Y-95215000D02*
X126365000Y-96520000D01*
X127635000Y-103022500D02*
X128117500Y-103505000D01*
X127635000Y-102235000D02*
X127635000Y-103022500D01*
X126517500Y-103505000D02*
X126517500Y-102235000D01*
X127152500Y-103505000D02*
X127635000Y-103022500D01*
X126517500Y-103505000D02*
X127152500Y-103505000D01*
D17*
G04 #@! TO.N,/SDA*
X131765000Y-100425874D02*
X131765000Y-101585000D01*
X137176375Y-95014499D02*
X131765000Y-100425874D01*
X142134499Y-95014499D02*
X137176375Y-95014499D01*
X142400000Y-95280000D02*
X142134499Y-95014499D01*
X135628999Y-95014499D02*
X134594500Y-93980000D01*
X137176375Y-95014499D02*
X135628999Y-95014499D01*
D18*
G04 #@! TO.N,/PWM*
X143729001Y-94309001D02*
X142400000Y-92980000D01*
X143729001Y-99475999D02*
X143729001Y-94309001D01*
X140970000Y-102235000D02*
X143729001Y-99475999D01*
D17*
G04 #@! TO.N,/SCL*
X133665000Y-99862500D02*
X134467500Y-99060000D01*
X133665000Y-101585000D02*
X133665000Y-99862500D01*
X137247500Y-96280000D02*
X138100000Y-96280000D01*
X134467500Y-99060000D02*
X137247500Y-96280000D01*
D18*
G04 #@! TO.N,/~ERR*
X129210000Y-94910000D02*
X128905000Y-95215000D01*
X129210000Y-92710000D02*
X129210000Y-94910000D01*
X137070000Y-92710000D02*
X138100000Y-91680000D01*
X129210000Y-92710000D02*
X137070000Y-92710000D01*
X129210000Y-95555000D02*
X130810000Y-97155000D01*
X129210000Y-94910000D02*
X129210000Y-95555000D01*
D17*
G04 #@! TO.N,Net-(R5-Pad2)*
X130962500Y-102235000D02*
X131765000Y-102235000D01*
X129692500Y-103505000D02*
X130962500Y-102235000D01*
G04 #@! TD*
D19*
G04 #@! TO.N,GND*
X143637000Y-102108000D02*
X143657000Y-102108000D01*
X143657000Y-102362000D01*
X143637000Y-102362000D01*
X143637000Y-103811250D01*
X143795750Y-103970000D01*
X144380000Y-103973072D01*
X144504482Y-103960812D01*
X144624180Y-103924502D01*
X144734494Y-103865537D01*
X144755000Y-103848708D01*
X144755000Y-105004000D01*
X138553102Y-105004000D01*
X139201216Y-104355887D01*
X139244975Y-104319975D01*
X139286078Y-104269891D01*
X139388309Y-104145323D01*
X139465295Y-104001291D01*
X139494816Y-103946061D01*
X139560403Y-103729851D01*
X139577000Y-103561340D01*
X139577000Y-103561330D01*
X139582548Y-103505001D01*
X139577000Y-103448671D01*
X139577000Y-103439722D01*
X139687417Y-103305179D01*
X139700000Y-103281637D01*
X139712583Y-103305178D01*
X139900655Y-103534345D01*
X140129821Y-103722417D01*
X140391275Y-103862166D01*
X140674968Y-103948224D01*
X140970000Y-103977282D01*
X141265031Y-103948224D01*
X141548724Y-103862166D01*
X141810178Y-103722417D01*
X142037385Y-103535953D01*
X142050498Y-103579180D01*
X142109463Y-103689494D01*
X142188815Y-103786185D01*
X142285506Y-103865537D01*
X142395820Y-103924502D01*
X142515518Y-103960812D01*
X142640000Y-103973072D01*
X143224250Y-103970000D01*
X143383000Y-103811250D01*
X143383000Y-102362000D01*
X143363000Y-102362000D01*
X143363000Y-102108000D01*
X143383000Y-102108000D01*
X143383000Y-102088000D01*
X143637000Y-102088000D01*
X143637000Y-102108000D01*
G04 #@! TA.AperFunction,Conductor*
D20*
G36*
X143637000Y-102108000D02*
G01*
X143657000Y-102108000D01*
X143657000Y-102362000D01*
X143637000Y-102362000D01*
X143637000Y-103811250D01*
X143795750Y-103970000D01*
X144380000Y-103973072D01*
X144504482Y-103960812D01*
X144624180Y-103924502D01*
X144734494Y-103865537D01*
X144755000Y-103848708D01*
X144755000Y-105004000D01*
X138553102Y-105004000D01*
X139201216Y-104355887D01*
X139244975Y-104319975D01*
X139286078Y-104269891D01*
X139388309Y-104145323D01*
X139465295Y-104001291D01*
X139494816Y-103946061D01*
X139560403Y-103729851D01*
X139577000Y-103561340D01*
X139577000Y-103561330D01*
X139582548Y-103505001D01*
X139577000Y-103448671D01*
X139577000Y-103439722D01*
X139687417Y-103305179D01*
X139700000Y-103281637D01*
X139712583Y-103305178D01*
X139900655Y-103534345D01*
X140129821Y-103722417D01*
X140391275Y-103862166D01*
X140674968Y-103948224D01*
X140970000Y-103977282D01*
X141265031Y-103948224D01*
X141548724Y-103862166D01*
X141810178Y-103722417D01*
X142037385Y-103535953D01*
X142050498Y-103579180D01*
X142109463Y-103689494D01*
X142188815Y-103786185D01*
X142285506Y-103865537D01*
X142395820Y-103924502D01*
X142515518Y-103960812D01*
X142640000Y-103973072D01*
X143224250Y-103970000D01*
X143383000Y-103811250D01*
X143383000Y-102362000D01*
X143363000Y-102362000D01*
X143363000Y-102108000D01*
X143383000Y-102108000D01*
X143383000Y-102088000D01*
X143637000Y-102088000D01*
X143637000Y-102108000D01*
G37*
G04 #@! TD.AperFunction*
D19*
X131766169Y-88378463D02*
X131482002Y-88568337D01*
X131240337Y-88810002D01*
X131050463Y-89094169D01*
X130919675Y-89409919D01*
X130853000Y-89745117D01*
X130853000Y-90086883D01*
X130919675Y-90422081D01*
X131050463Y-90737831D01*
X131240337Y-91021998D01*
X131482002Y-91263663D01*
X131766169Y-91453537D01*
X132081919Y-91584325D01*
X132417117Y-91651000D01*
X132758883Y-91651000D01*
X133094081Y-91584325D01*
X133409831Y-91453537D01*
X133693998Y-91263663D01*
X133935663Y-91021998D01*
X134125537Y-90737831D01*
X134256325Y-90422081D01*
X134323000Y-90086883D01*
X134323000Y-89745117D01*
X134256325Y-89409919D01*
X134125537Y-89094169D01*
X133935663Y-88810002D01*
X133693998Y-88568337D01*
X133409831Y-88378463D01*
X133196263Y-88290000D01*
X144755001Y-88290000D01*
X144755000Y-100621292D01*
X144734494Y-100604463D01*
X144624180Y-100545498D01*
X144504482Y-100509188D01*
X144380000Y-100496928D01*
X143963116Y-100499120D01*
X144326744Y-100135492D01*
X144360660Y-100107658D01*
X144471754Y-99972290D01*
X144554304Y-99817850D01*
X144590648Y-99698037D01*
X144605137Y-99650274D01*
X144612007Y-99580518D01*
X144618001Y-99519666D01*
X144618001Y-99519659D01*
X144622301Y-99475999D01*
X144618001Y-99432339D01*
X144618001Y-94352660D01*
X144622301Y-94309000D01*
X144618001Y-94265340D01*
X144618001Y-94265334D01*
X144606926Y-94152893D01*
X144605137Y-94134725D01*
X144573334Y-94029886D01*
X144554304Y-93967150D01*
X144471754Y-93812710D01*
X144360660Y-93677342D01*
X144326737Y-93649502D01*
X143892738Y-93215503D01*
X143910000Y-93128722D01*
X143910000Y-92831278D01*
X143851971Y-92539549D01*
X143738144Y-92264747D01*
X143572893Y-92017431D01*
X143362569Y-91807107D01*
X143115253Y-91641856D01*
X142840451Y-91528029D01*
X142548722Y-91470000D01*
X142251278Y-91470000D01*
X141959549Y-91528029D01*
X141684747Y-91641856D01*
X141488901Y-91772716D01*
X141551971Y-91620451D01*
X141610000Y-91328722D01*
X141610000Y-91031278D01*
X141551971Y-90739549D01*
X141438144Y-90464747D01*
X141272893Y-90217431D01*
X141062569Y-90007107D01*
X140815253Y-89841856D01*
X140540451Y-89728029D01*
X140248722Y-89670000D01*
X139951278Y-89670000D01*
X139659549Y-89728029D01*
X139384747Y-89841856D01*
X139137431Y-90007107D01*
X138927107Y-90217431D01*
X138835106Y-90355121D01*
X138815253Y-90341856D01*
X138540451Y-90228029D01*
X138248722Y-90170000D01*
X137951278Y-90170000D01*
X137659549Y-90228029D01*
X137384747Y-90341856D01*
X137137431Y-90507107D01*
X136927107Y-90717431D01*
X136761856Y-90964747D01*
X136648029Y-91239549D01*
X136590000Y-91531278D01*
X136590000Y-91821000D01*
X130001855Y-91821000D01*
X129904775Y-91741329D01*
X129756642Y-91662150D01*
X129595908Y-91613392D01*
X129428750Y-91596928D01*
X128991250Y-91596928D01*
X128824092Y-91613392D01*
X128663358Y-91662150D01*
X128515225Y-91741329D01*
X128422500Y-91817426D01*
X128329775Y-91741329D01*
X128181642Y-91662150D01*
X128020908Y-91613392D01*
X127853750Y-91596928D01*
X127416250Y-91596928D01*
X127249092Y-91613392D01*
X127088358Y-91662150D01*
X127030033Y-91693326D01*
X126992482Y-91623073D01*
X126800662Y-91389339D01*
X126566928Y-91197519D01*
X126300262Y-91054983D01*
X126010914Y-90967210D01*
X125785409Y-90945000D01*
X123542681Y-90945000D01*
X123622791Y-90680913D01*
X123652428Y-90380000D01*
X123622791Y-90079087D01*
X123535018Y-89789739D01*
X123392482Y-89523073D01*
X123200662Y-89289339D01*
X122966928Y-89097519D01*
X122700262Y-88954983D01*
X122410914Y-88867210D01*
X122185409Y-88845000D01*
X119834593Y-88845000D01*
X119609088Y-88867210D01*
X119319740Y-88954983D01*
X119053074Y-89097519D01*
X118819340Y-89289339D01*
X118627520Y-89523073D01*
X118484984Y-89789739D01*
X118397211Y-90079087D01*
X118367574Y-90380000D01*
X118397211Y-90680913D01*
X118484984Y-90970261D01*
X118627520Y-91236927D01*
X118819340Y-91470661D01*
X119053074Y-91662481D01*
X119319740Y-91805017D01*
X119609088Y-91892790D01*
X119834593Y-91915000D01*
X119863001Y-91915000D01*
X119863001Y-92203396D01*
X119857453Y-92259726D01*
X119863001Y-92316055D01*
X119863001Y-92316065D01*
X119879598Y-92484576D01*
X119945185Y-92700786D01*
X120051692Y-92900047D01*
X120195026Y-93074701D01*
X120238791Y-93110618D01*
X122043001Y-94914829D01*
X122043000Y-96946160D01*
X122037451Y-97002500D01*
X122059597Y-97227351D01*
X122086151Y-97314886D01*
X122093392Y-97388408D01*
X122142150Y-97549142D01*
X122221329Y-97697275D01*
X122239100Y-97718930D01*
X122184463Y-97785506D01*
X122125498Y-97895820D01*
X122089188Y-98015518D01*
X122076928Y-98140000D01*
X122080000Y-98291750D01*
X122238750Y-98450500D01*
X123063000Y-98450500D01*
X123063000Y-98430500D01*
X123317000Y-98430500D01*
X123317000Y-98450500D01*
X124141250Y-98450500D01*
X124300000Y-98291750D01*
X124303072Y-98140000D01*
X124290812Y-98015518D01*
X124254502Y-97895820D01*
X124195537Y-97785506D01*
X124173477Y-97758625D01*
X125204031Y-96728072D01*
X125245000Y-96728072D01*
X125249072Y-96727671D01*
X125273617Y-96851067D01*
X125359176Y-97057624D01*
X125483388Y-97243520D01*
X125641480Y-97401612D01*
X125827376Y-97525824D01*
X126033933Y-97611383D01*
X126253212Y-97655000D01*
X126476788Y-97655000D01*
X126696067Y-97611383D01*
X126902624Y-97525824D01*
X127088520Y-97401612D01*
X127246612Y-97243520D01*
X127370824Y-97057624D01*
X127456383Y-96851067D01*
X127480928Y-96727671D01*
X127485000Y-96728072D01*
X127785000Y-96728072D01*
X127938745Y-96712929D01*
X128086582Y-96668084D01*
X128222829Y-96595258D01*
X128270000Y-96556546D01*
X128317171Y-96595258D01*
X128453418Y-96668084D01*
X128601255Y-96712929D01*
X128755000Y-96728072D01*
X129055000Y-96728072D01*
X129119485Y-96721721D01*
X129696928Y-97299164D01*
X129696928Y-97373750D01*
X129713392Y-97540908D01*
X129762150Y-97701642D01*
X129841329Y-97849775D01*
X129859100Y-97871430D01*
X129804463Y-97938006D01*
X129745498Y-98048320D01*
X129709188Y-98168018D01*
X129696928Y-98292500D01*
X129700000Y-98444250D01*
X129858750Y-98603000D01*
X130683000Y-98603000D01*
X130683000Y-98583000D01*
X130937000Y-98583000D01*
X130937000Y-98603000D01*
X131761250Y-98603000D01*
X131920000Y-98444250D01*
X131923072Y-98292500D01*
X131910812Y-98168018D01*
X131874502Y-98048320D01*
X131815537Y-97938006D01*
X131760900Y-97871430D01*
X131778671Y-97849775D01*
X131857850Y-97701642D01*
X131906608Y-97540908D01*
X131923072Y-97373750D01*
X131923072Y-96936250D01*
X131906608Y-96769092D01*
X131857850Y-96608358D01*
X131778671Y-96460225D01*
X131672115Y-96330385D01*
X131542275Y-96223829D01*
X131394142Y-96144650D01*
X131233408Y-96095892D01*
X131066250Y-96079428D01*
X130991664Y-96079428D01*
X130099000Y-95186765D01*
X130099000Y-94953661D01*
X130103300Y-94910001D01*
X130099000Y-94866341D01*
X130099000Y-93599000D01*
X133531215Y-93599000D01*
X133518928Y-93723750D01*
X133518928Y-94236250D01*
X133535392Y-94403408D01*
X133584150Y-94564142D01*
X133663329Y-94712275D01*
X133769885Y-94842115D01*
X133899725Y-94948671D01*
X134047858Y-95027850D01*
X134208592Y-95076608D01*
X134375750Y-95093072D01*
X134540139Y-95093072D01*
X135016610Y-95569544D01*
X135042458Y-95601040D01*
X135073954Y-95626888D01*
X135073957Y-95626891D01*
X135168156Y-95704198D01*
X135236712Y-95740842D01*
X135266615Y-95756825D01*
X131921740Y-99101702D01*
X131920000Y-99015750D01*
X131761250Y-98857000D01*
X130937000Y-98857000D01*
X130937000Y-99643750D01*
X131095750Y-99802500D01*
X131218942Y-99804500D01*
X131209966Y-99813476D01*
X131178459Y-99839333D01*
X131110522Y-99922115D01*
X131075301Y-99965032D01*
X131041285Y-100028671D01*
X130998647Y-100108441D01*
X130951444Y-100264049D01*
X130942769Y-100352135D01*
X130935506Y-100425874D01*
X130939500Y-100466425D01*
X130939500Y-100993905D01*
X130909463Y-101030506D01*
X130850498Y-101140820D01*
X130814188Y-101260518D01*
X130801928Y-101385000D01*
X130801928Y-101421320D01*
X130800674Y-101421444D01*
X130645066Y-101468647D01*
X130578060Y-101504463D01*
X130501657Y-101545301D01*
X130454728Y-101583815D01*
X130375959Y-101648459D01*
X130350106Y-101679961D01*
X129638140Y-102391928D01*
X129473750Y-102391928D01*
X129306592Y-102408392D01*
X129145858Y-102457150D01*
X128997725Y-102536329D01*
X128905000Y-102612426D01*
X128812275Y-102536329D01*
X128739984Y-102497689D01*
X128770000Y-102346788D01*
X128770000Y-102123212D01*
X128726383Y-101903933D01*
X128686530Y-101807720D01*
X128778000Y-101716250D01*
X128778000Y-100492000D01*
X129032000Y-100492000D01*
X129032000Y-101716250D01*
X129190750Y-101875000D01*
X129205000Y-101878072D01*
X129329482Y-101865812D01*
X129449180Y-101829502D01*
X129559494Y-101770537D01*
X129656185Y-101691185D01*
X129735537Y-101594494D01*
X129794502Y-101484180D01*
X129830812Y-101364482D01*
X129843072Y-101240000D01*
X129840000Y-100650750D01*
X129681250Y-100492000D01*
X129032000Y-100492000D01*
X128778000Y-100492000D01*
X127762000Y-100492000D01*
X127762000Y-100512000D01*
X127508000Y-100512000D01*
X127508000Y-100492000D01*
X127488000Y-100492000D01*
X127488000Y-100238000D01*
X127508000Y-100238000D01*
X127508000Y-99013750D01*
X127762000Y-99013750D01*
X127762000Y-100238000D01*
X128778000Y-100238000D01*
X128778000Y-99013750D01*
X129032000Y-99013750D01*
X129032000Y-100238000D01*
X129681250Y-100238000D01*
X129840000Y-100079250D01*
X129842663Y-99568540D01*
X129883815Y-99618685D01*
X129980506Y-99698037D01*
X130090820Y-99757002D01*
X130210518Y-99793312D01*
X130335000Y-99805572D01*
X130524250Y-99802500D01*
X130683000Y-99643750D01*
X130683000Y-98857000D01*
X129858750Y-98857000D01*
X129700000Y-99015750D01*
X129698490Y-99090363D01*
X129656185Y-99038815D01*
X129559494Y-98959463D01*
X129449180Y-98900498D01*
X129329482Y-98864188D01*
X129205000Y-98851928D01*
X129190750Y-98855000D01*
X129032000Y-99013750D01*
X128778000Y-99013750D01*
X128619250Y-98855000D01*
X128605000Y-98851928D01*
X128480518Y-98864188D01*
X128360820Y-98900498D01*
X128270000Y-98949043D01*
X128179180Y-98900498D01*
X128059482Y-98864188D01*
X127935000Y-98851928D01*
X127920750Y-98855000D01*
X127762000Y-99013750D01*
X127508000Y-99013750D01*
X127349250Y-98855000D01*
X127335000Y-98851928D01*
X127210518Y-98864188D01*
X127090820Y-98900498D01*
X126980506Y-98959463D01*
X126950936Y-98983730D01*
X126816582Y-98911916D01*
X126668745Y-98867071D01*
X126515000Y-98851928D01*
X126215000Y-98851928D01*
X126061255Y-98867071D01*
X125913418Y-98911916D01*
X125777171Y-98984742D01*
X125730000Y-99023454D01*
X125682829Y-98984742D01*
X125546582Y-98911916D01*
X125398745Y-98867071D01*
X125245000Y-98851928D01*
X124945000Y-98851928D01*
X124791255Y-98867071D01*
X124643418Y-98911916D01*
X124507171Y-98984742D01*
X124387749Y-99082749D01*
X124289742Y-99202171D01*
X124216916Y-99338418D01*
X124172071Y-99486255D01*
X124156928Y-99640000D01*
X124156928Y-99700020D01*
X124136691Y-99724679D01*
X124066708Y-99855608D01*
X124068072Y-99705000D01*
X124055812Y-99580518D01*
X124040077Y-99528645D01*
X124116185Y-99466185D01*
X124195537Y-99369494D01*
X124254502Y-99259180D01*
X124290812Y-99139482D01*
X124303072Y-99015000D01*
X124300000Y-98863250D01*
X124141250Y-98704500D01*
X123317000Y-98704500D01*
X123317000Y-98724500D01*
X123063000Y-98724500D01*
X123063000Y-98704500D01*
X122238750Y-98704500D01*
X122080000Y-98863250D01*
X122076928Y-99015000D01*
X122082249Y-99069025D01*
X121680000Y-99066928D01*
X121555518Y-99079188D01*
X121435820Y-99115498D01*
X121325506Y-99174463D01*
X121228815Y-99253815D01*
X121149463Y-99350506D01*
X121090498Y-99460820D01*
X121054188Y-99580518D01*
X121041928Y-99705000D01*
X121045000Y-100044250D01*
X121203750Y-100203000D01*
X122428000Y-100203000D01*
X122428000Y-100183000D01*
X122682000Y-100183000D01*
X122682000Y-100203000D01*
X122702000Y-100203000D01*
X122702000Y-100457000D01*
X122682000Y-100457000D01*
X122682000Y-101431250D01*
X122840750Y-101590000D01*
X123430000Y-101593072D01*
X123554482Y-101580812D01*
X123674180Y-101544502D01*
X123784494Y-101485537D01*
X123881185Y-101406185D01*
X123948000Y-101324770D01*
X123948000Y-101607397D01*
X123585682Y-101969716D01*
X123519850Y-101934528D01*
X123353254Y-101883992D01*
X123180000Y-101866928D01*
X121930000Y-101866928D01*
X121756746Y-101883992D01*
X121590150Y-101934528D01*
X121436614Y-102016595D01*
X121302038Y-102127038D01*
X121191595Y-102261614D01*
X121109528Y-102415150D01*
X121058992Y-102581746D01*
X121041928Y-102755000D01*
X121041928Y-103505000D01*
X121058992Y-103678254D01*
X121109528Y-103844850D01*
X121191595Y-103998386D01*
X121302038Y-104132962D01*
X121436614Y-104243405D01*
X121590150Y-104325472D01*
X121756746Y-104376008D01*
X121930000Y-104393072D01*
X123180000Y-104393072D01*
X123353254Y-104376008D01*
X123519850Y-104325472D01*
X123583928Y-104291222D01*
X123607525Y-104319975D01*
X123651290Y-104355892D01*
X124299397Y-105004000D01*
X119734263Y-105004000D01*
X119947831Y-104915537D01*
X120231998Y-104725663D01*
X120473663Y-104483998D01*
X120663537Y-104199831D01*
X120794325Y-103884081D01*
X120861000Y-103548883D01*
X120861000Y-103207117D01*
X120794325Y-102871919D01*
X120663537Y-102556169D01*
X120473663Y-102272002D01*
X120231998Y-102030337D01*
X119947831Y-101840463D01*
X119632081Y-101709675D01*
X119296883Y-101643000D01*
X118955117Y-101643000D01*
X118619919Y-101709675D01*
X118304169Y-101840463D01*
X118020002Y-102030337D01*
X117778337Y-102272002D01*
X117588463Y-102556169D01*
X117500000Y-102769737D01*
X117500000Y-100955000D01*
X121041928Y-100955000D01*
X121054188Y-101079482D01*
X121090498Y-101199180D01*
X121149463Y-101309494D01*
X121228815Y-101406185D01*
X121325506Y-101485537D01*
X121435820Y-101544502D01*
X121555518Y-101580812D01*
X121680000Y-101593072D01*
X122269250Y-101590000D01*
X122428000Y-101431250D01*
X122428000Y-100457000D01*
X121203750Y-100457000D01*
X121045000Y-100615750D01*
X121041928Y-100955000D01*
X117500000Y-100955000D01*
X117500000Y-96007000D01*
X117775001Y-96007000D01*
X117775001Y-97107000D01*
X117829272Y-97404023D01*
X117940447Y-97684751D01*
X118104253Y-97938396D01*
X118314395Y-98155210D01*
X118562797Y-98326862D01*
X118839914Y-98446755D01*
X118945261Y-98471036D01*
X119183001Y-98350378D01*
X119183001Y-96007000D01*
X119437001Y-96007000D01*
X119437001Y-98350378D01*
X119674741Y-98471036D01*
X119780088Y-98446755D01*
X120057205Y-98326862D01*
X120305607Y-98155210D01*
X120515749Y-97938396D01*
X120679555Y-97684751D01*
X120790730Y-97404023D01*
X120845001Y-97107000D01*
X120845001Y-96007000D01*
X119437001Y-96007000D01*
X119183001Y-96007000D01*
X117775001Y-96007000D01*
X117500000Y-96007000D01*
X117500000Y-94653000D01*
X117775001Y-94653000D01*
X117775001Y-95753000D01*
X119183001Y-95753000D01*
X119183001Y-93409622D01*
X119437001Y-93409622D01*
X119437001Y-95753000D01*
X120845001Y-95753000D01*
X120845001Y-94653000D01*
X120790730Y-94355977D01*
X120679555Y-94075249D01*
X120515749Y-93821604D01*
X120305607Y-93604790D01*
X120057205Y-93433138D01*
X119780088Y-93313245D01*
X119674741Y-93288964D01*
X119437001Y-93409622D01*
X119183001Y-93409622D01*
X118945261Y-93288964D01*
X118839914Y-93313245D01*
X118562797Y-93433138D01*
X118314395Y-93604790D01*
X118104253Y-93821604D01*
X117940447Y-94075249D01*
X117829272Y-94355977D01*
X117775001Y-94653000D01*
X117500000Y-94653000D01*
X117500000Y-88290000D01*
X131979737Y-88290000D01*
X131766169Y-88378463D01*
G04 #@! TA.AperFunction,Conductor*
D20*
G36*
X131766169Y-88378463D02*
G01*
X131482002Y-88568337D01*
X131240337Y-88810002D01*
X131050463Y-89094169D01*
X130919675Y-89409919D01*
X130853000Y-89745117D01*
X130853000Y-90086883D01*
X130919675Y-90422081D01*
X131050463Y-90737831D01*
X131240337Y-91021998D01*
X131482002Y-91263663D01*
X131766169Y-91453537D01*
X132081919Y-91584325D01*
X132417117Y-91651000D01*
X132758883Y-91651000D01*
X133094081Y-91584325D01*
X133409831Y-91453537D01*
X133693998Y-91263663D01*
X133935663Y-91021998D01*
X134125537Y-90737831D01*
X134256325Y-90422081D01*
X134323000Y-90086883D01*
X134323000Y-89745117D01*
X134256325Y-89409919D01*
X134125537Y-89094169D01*
X133935663Y-88810002D01*
X133693998Y-88568337D01*
X133409831Y-88378463D01*
X133196263Y-88290000D01*
X144755001Y-88290000D01*
X144755000Y-100621292D01*
X144734494Y-100604463D01*
X144624180Y-100545498D01*
X144504482Y-100509188D01*
X144380000Y-100496928D01*
X143963116Y-100499120D01*
X144326744Y-100135492D01*
X144360660Y-100107658D01*
X144471754Y-99972290D01*
X144554304Y-99817850D01*
X144590648Y-99698037D01*
X144605137Y-99650274D01*
X144612007Y-99580518D01*
X144618001Y-99519666D01*
X144618001Y-99519659D01*
X144622301Y-99475999D01*
X144618001Y-99432339D01*
X144618001Y-94352660D01*
X144622301Y-94309000D01*
X144618001Y-94265340D01*
X144618001Y-94265334D01*
X144606926Y-94152893D01*
X144605137Y-94134725D01*
X144573334Y-94029886D01*
X144554304Y-93967150D01*
X144471754Y-93812710D01*
X144360660Y-93677342D01*
X144326737Y-93649502D01*
X143892738Y-93215503D01*
X143910000Y-93128722D01*
X143910000Y-92831278D01*
X143851971Y-92539549D01*
X143738144Y-92264747D01*
X143572893Y-92017431D01*
X143362569Y-91807107D01*
X143115253Y-91641856D01*
X142840451Y-91528029D01*
X142548722Y-91470000D01*
X142251278Y-91470000D01*
X141959549Y-91528029D01*
X141684747Y-91641856D01*
X141488901Y-91772716D01*
X141551971Y-91620451D01*
X141610000Y-91328722D01*
X141610000Y-91031278D01*
X141551971Y-90739549D01*
X141438144Y-90464747D01*
X141272893Y-90217431D01*
X141062569Y-90007107D01*
X140815253Y-89841856D01*
X140540451Y-89728029D01*
X140248722Y-89670000D01*
X139951278Y-89670000D01*
X139659549Y-89728029D01*
X139384747Y-89841856D01*
X139137431Y-90007107D01*
X138927107Y-90217431D01*
X138835106Y-90355121D01*
X138815253Y-90341856D01*
X138540451Y-90228029D01*
X138248722Y-90170000D01*
X137951278Y-90170000D01*
X137659549Y-90228029D01*
X137384747Y-90341856D01*
X137137431Y-90507107D01*
X136927107Y-90717431D01*
X136761856Y-90964747D01*
X136648029Y-91239549D01*
X136590000Y-91531278D01*
X136590000Y-91821000D01*
X130001855Y-91821000D01*
X129904775Y-91741329D01*
X129756642Y-91662150D01*
X129595908Y-91613392D01*
X129428750Y-91596928D01*
X128991250Y-91596928D01*
X128824092Y-91613392D01*
X128663358Y-91662150D01*
X128515225Y-91741329D01*
X128422500Y-91817426D01*
X128329775Y-91741329D01*
X128181642Y-91662150D01*
X128020908Y-91613392D01*
X127853750Y-91596928D01*
X127416250Y-91596928D01*
X127249092Y-91613392D01*
X127088358Y-91662150D01*
X127030033Y-91693326D01*
X126992482Y-91623073D01*
X126800662Y-91389339D01*
X126566928Y-91197519D01*
X126300262Y-91054983D01*
X126010914Y-90967210D01*
X125785409Y-90945000D01*
X123542681Y-90945000D01*
X123622791Y-90680913D01*
X123652428Y-90380000D01*
X123622791Y-90079087D01*
X123535018Y-89789739D01*
X123392482Y-89523073D01*
X123200662Y-89289339D01*
X122966928Y-89097519D01*
X122700262Y-88954983D01*
X122410914Y-88867210D01*
X122185409Y-88845000D01*
X119834593Y-88845000D01*
X119609088Y-88867210D01*
X119319740Y-88954983D01*
X119053074Y-89097519D01*
X118819340Y-89289339D01*
X118627520Y-89523073D01*
X118484984Y-89789739D01*
X118397211Y-90079087D01*
X118367574Y-90380000D01*
X118397211Y-90680913D01*
X118484984Y-90970261D01*
X118627520Y-91236927D01*
X118819340Y-91470661D01*
X119053074Y-91662481D01*
X119319740Y-91805017D01*
X119609088Y-91892790D01*
X119834593Y-91915000D01*
X119863001Y-91915000D01*
X119863001Y-92203396D01*
X119857453Y-92259726D01*
X119863001Y-92316055D01*
X119863001Y-92316065D01*
X119879598Y-92484576D01*
X119945185Y-92700786D01*
X120051692Y-92900047D01*
X120195026Y-93074701D01*
X120238791Y-93110618D01*
X122043001Y-94914829D01*
X122043000Y-96946160D01*
X122037451Y-97002500D01*
X122059597Y-97227351D01*
X122086151Y-97314886D01*
X122093392Y-97388408D01*
X122142150Y-97549142D01*
X122221329Y-97697275D01*
X122239100Y-97718930D01*
X122184463Y-97785506D01*
X122125498Y-97895820D01*
X122089188Y-98015518D01*
X122076928Y-98140000D01*
X122080000Y-98291750D01*
X122238750Y-98450500D01*
X123063000Y-98450500D01*
X123063000Y-98430500D01*
X123317000Y-98430500D01*
X123317000Y-98450500D01*
X124141250Y-98450500D01*
X124300000Y-98291750D01*
X124303072Y-98140000D01*
X124290812Y-98015518D01*
X124254502Y-97895820D01*
X124195537Y-97785506D01*
X124173477Y-97758625D01*
X125204031Y-96728072D01*
X125245000Y-96728072D01*
X125249072Y-96727671D01*
X125273617Y-96851067D01*
X125359176Y-97057624D01*
X125483388Y-97243520D01*
X125641480Y-97401612D01*
X125827376Y-97525824D01*
X126033933Y-97611383D01*
X126253212Y-97655000D01*
X126476788Y-97655000D01*
X126696067Y-97611383D01*
X126902624Y-97525824D01*
X127088520Y-97401612D01*
X127246612Y-97243520D01*
X127370824Y-97057624D01*
X127456383Y-96851067D01*
X127480928Y-96727671D01*
X127485000Y-96728072D01*
X127785000Y-96728072D01*
X127938745Y-96712929D01*
X128086582Y-96668084D01*
X128222829Y-96595258D01*
X128270000Y-96556546D01*
X128317171Y-96595258D01*
X128453418Y-96668084D01*
X128601255Y-96712929D01*
X128755000Y-96728072D01*
X129055000Y-96728072D01*
X129119485Y-96721721D01*
X129696928Y-97299164D01*
X129696928Y-97373750D01*
X129713392Y-97540908D01*
X129762150Y-97701642D01*
X129841329Y-97849775D01*
X129859100Y-97871430D01*
X129804463Y-97938006D01*
X129745498Y-98048320D01*
X129709188Y-98168018D01*
X129696928Y-98292500D01*
X129700000Y-98444250D01*
X129858750Y-98603000D01*
X130683000Y-98603000D01*
X130683000Y-98583000D01*
X130937000Y-98583000D01*
X130937000Y-98603000D01*
X131761250Y-98603000D01*
X131920000Y-98444250D01*
X131923072Y-98292500D01*
X131910812Y-98168018D01*
X131874502Y-98048320D01*
X131815537Y-97938006D01*
X131760900Y-97871430D01*
X131778671Y-97849775D01*
X131857850Y-97701642D01*
X131906608Y-97540908D01*
X131923072Y-97373750D01*
X131923072Y-96936250D01*
X131906608Y-96769092D01*
X131857850Y-96608358D01*
X131778671Y-96460225D01*
X131672115Y-96330385D01*
X131542275Y-96223829D01*
X131394142Y-96144650D01*
X131233408Y-96095892D01*
X131066250Y-96079428D01*
X130991664Y-96079428D01*
X130099000Y-95186765D01*
X130099000Y-94953661D01*
X130103300Y-94910001D01*
X130099000Y-94866341D01*
X130099000Y-93599000D01*
X133531215Y-93599000D01*
X133518928Y-93723750D01*
X133518928Y-94236250D01*
X133535392Y-94403408D01*
X133584150Y-94564142D01*
X133663329Y-94712275D01*
X133769885Y-94842115D01*
X133899725Y-94948671D01*
X134047858Y-95027850D01*
X134208592Y-95076608D01*
X134375750Y-95093072D01*
X134540139Y-95093072D01*
X135016610Y-95569544D01*
X135042458Y-95601040D01*
X135073954Y-95626888D01*
X135073957Y-95626891D01*
X135168156Y-95704198D01*
X135236712Y-95740842D01*
X135266615Y-95756825D01*
X131921740Y-99101702D01*
X131920000Y-99015750D01*
X131761250Y-98857000D01*
X130937000Y-98857000D01*
X130937000Y-99643750D01*
X131095750Y-99802500D01*
X131218942Y-99804500D01*
X131209966Y-99813476D01*
X131178459Y-99839333D01*
X131110522Y-99922115D01*
X131075301Y-99965032D01*
X131041285Y-100028671D01*
X130998647Y-100108441D01*
X130951444Y-100264049D01*
X130942769Y-100352135D01*
X130935506Y-100425874D01*
X130939500Y-100466425D01*
X130939500Y-100993905D01*
X130909463Y-101030506D01*
X130850498Y-101140820D01*
X130814188Y-101260518D01*
X130801928Y-101385000D01*
X130801928Y-101421320D01*
X130800674Y-101421444D01*
X130645066Y-101468647D01*
X130578060Y-101504463D01*
X130501657Y-101545301D01*
X130454728Y-101583815D01*
X130375959Y-101648459D01*
X130350106Y-101679961D01*
X129638140Y-102391928D01*
X129473750Y-102391928D01*
X129306592Y-102408392D01*
X129145858Y-102457150D01*
X128997725Y-102536329D01*
X128905000Y-102612426D01*
X128812275Y-102536329D01*
X128739984Y-102497689D01*
X128770000Y-102346788D01*
X128770000Y-102123212D01*
X128726383Y-101903933D01*
X128686530Y-101807720D01*
X128778000Y-101716250D01*
X128778000Y-100492000D01*
X129032000Y-100492000D01*
X129032000Y-101716250D01*
X129190750Y-101875000D01*
X129205000Y-101878072D01*
X129329482Y-101865812D01*
X129449180Y-101829502D01*
X129559494Y-101770537D01*
X129656185Y-101691185D01*
X129735537Y-101594494D01*
X129794502Y-101484180D01*
X129830812Y-101364482D01*
X129843072Y-101240000D01*
X129840000Y-100650750D01*
X129681250Y-100492000D01*
X129032000Y-100492000D01*
X128778000Y-100492000D01*
X127762000Y-100492000D01*
X127762000Y-100512000D01*
X127508000Y-100512000D01*
X127508000Y-100492000D01*
X127488000Y-100492000D01*
X127488000Y-100238000D01*
X127508000Y-100238000D01*
X127508000Y-99013750D01*
X127762000Y-99013750D01*
X127762000Y-100238000D01*
X128778000Y-100238000D01*
X128778000Y-99013750D01*
X129032000Y-99013750D01*
X129032000Y-100238000D01*
X129681250Y-100238000D01*
X129840000Y-100079250D01*
X129842663Y-99568540D01*
X129883815Y-99618685D01*
X129980506Y-99698037D01*
X130090820Y-99757002D01*
X130210518Y-99793312D01*
X130335000Y-99805572D01*
X130524250Y-99802500D01*
X130683000Y-99643750D01*
X130683000Y-98857000D01*
X129858750Y-98857000D01*
X129700000Y-99015750D01*
X129698490Y-99090363D01*
X129656185Y-99038815D01*
X129559494Y-98959463D01*
X129449180Y-98900498D01*
X129329482Y-98864188D01*
X129205000Y-98851928D01*
X129190750Y-98855000D01*
X129032000Y-99013750D01*
X128778000Y-99013750D01*
X128619250Y-98855000D01*
X128605000Y-98851928D01*
X128480518Y-98864188D01*
X128360820Y-98900498D01*
X128270000Y-98949043D01*
X128179180Y-98900498D01*
X128059482Y-98864188D01*
X127935000Y-98851928D01*
X127920750Y-98855000D01*
X127762000Y-99013750D01*
X127508000Y-99013750D01*
X127349250Y-98855000D01*
X127335000Y-98851928D01*
X127210518Y-98864188D01*
X127090820Y-98900498D01*
X126980506Y-98959463D01*
X126950936Y-98983730D01*
X126816582Y-98911916D01*
X126668745Y-98867071D01*
X126515000Y-98851928D01*
X126215000Y-98851928D01*
X126061255Y-98867071D01*
X125913418Y-98911916D01*
X125777171Y-98984742D01*
X125730000Y-99023454D01*
X125682829Y-98984742D01*
X125546582Y-98911916D01*
X125398745Y-98867071D01*
X125245000Y-98851928D01*
X124945000Y-98851928D01*
X124791255Y-98867071D01*
X124643418Y-98911916D01*
X124507171Y-98984742D01*
X124387749Y-99082749D01*
X124289742Y-99202171D01*
X124216916Y-99338418D01*
X124172071Y-99486255D01*
X124156928Y-99640000D01*
X124156928Y-99700020D01*
X124136691Y-99724679D01*
X124066708Y-99855608D01*
X124068072Y-99705000D01*
X124055812Y-99580518D01*
X124040077Y-99528645D01*
X124116185Y-99466185D01*
X124195537Y-99369494D01*
X124254502Y-99259180D01*
X124290812Y-99139482D01*
X124303072Y-99015000D01*
X124300000Y-98863250D01*
X124141250Y-98704500D01*
X123317000Y-98704500D01*
X123317000Y-98724500D01*
X123063000Y-98724500D01*
X123063000Y-98704500D01*
X122238750Y-98704500D01*
X122080000Y-98863250D01*
X122076928Y-99015000D01*
X122082249Y-99069025D01*
X121680000Y-99066928D01*
X121555518Y-99079188D01*
X121435820Y-99115498D01*
X121325506Y-99174463D01*
X121228815Y-99253815D01*
X121149463Y-99350506D01*
X121090498Y-99460820D01*
X121054188Y-99580518D01*
X121041928Y-99705000D01*
X121045000Y-100044250D01*
X121203750Y-100203000D01*
X122428000Y-100203000D01*
X122428000Y-100183000D01*
X122682000Y-100183000D01*
X122682000Y-100203000D01*
X122702000Y-100203000D01*
X122702000Y-100457000D01*
X122682000Y-100457000D01*
X122682000Y-101431250D01*
X122840750Y-101590000D01*
X123430000Y-101593072D01*
X123554482Y-101580812D01*
X123674180Y-101544502D01*
X123784494Y-101485537D01*
X123881185Y-101406185D01*
X123948000Y-101324770D01*
X123948000Y-101607397D01*
X123585682Y-101969716D01*
X123519850Y-101934528D01*
X123353254Y-101883992D01*
X123180000Y-101866928D01*
X121930000Y-101866928D01*
X121756746Y-101883992D01*
X121590150Y-101934528D01*
X121436614Y-102016595D01*
X121302038Y-102127038D01*
X121191595Y-102261614D01*
X121109528Y-102415150D01*
X121058992Y-102581746D01*
X121041928Y-102755000D01*
X121041928Y-103505000D01*
X121058992Y-103678254D01*
X121109528Y-103844850D01*
X121191595Y-103998386D01*
X121302038Y-104132962D01*
X121436614Y-104243405D01*
X121590150Y-104325472D01*
X121756746Y-104376008D01*
X121930000Y-104393072D01*
X123180000Y-104393072D01*
X123353254Y-104376008D01*
X123519850Y-104325472D01*
X123583928Y-104291222D01*
X123607525Y-104319975D01*
X123651290Y-104355892D01*
X124299397Y-105004000D01*
X119734263Y-105004000D01*
X119947831Y-104915537D01*
X120231998Y-104725663D01*
X120473663Y-104483998D01*
X120663537Y-104199831D01*
X120794325Y-103884081D01*
X120861000Y-103548883D01*
X120861000Y-103207117D01*
X120794325Y-102871919D01*
X120663537Y-102556169D01*
X120473663Y-102272002D01*
X120231998Y-102030337D01*
X119947831Y-101840463D01*
X119632081Y-101709675D01*
X119296883Y-101643000D01*
X118955117Y-101643000D01*
X118619919Y-101709675D01*
X118304169Y-101840463D01*
X118020002Y-102030337D01*
X117778337Y-102272002D01*
X117588463Y-102556169D01*
X117500000Y-102769737D01*
X117500000Y-100955000D01*
X121041928Y-100955000D01*
X121054188Y-101079482D01*
X121090498Y-101199180D01*
X121149463Y-101309494D01*
X121228815Y-101406185D01*
X121325506Y-101485537D01*
X121435820Y-101544502D01*
X121555518Y-101580812D01*
X121680000Y-101593072D01*
X122269250Y-101590000D01*
X122428000Y-101431250D01*
X122428000Y-100457000D01*
X121203750Y-100457000D01*
X121045000Y-100615750D01*
X121041928Y-100955000D01*
X117500000Y-100955000D01*
X117500000Y-96007000D01*
X117775001Y-96007000D01*
X117775001Y-97107000D01*
X117829272Y-97404023D01*
X117940447Y-97684751D01*
X118104253Y-97938396D01*
X118314395Y-98155210D01*
X118562797Y-98326862D01*
X118839914Y-98446755D01*
X118945261Y-98471036D01*
X119183001Y-98350378D01*
X119183001Y-96007000D01*
X119437001Y-96007000D01*
X119437001Y-98350378D01*
X119674741Y-98471036D01*
X119780088Y-98446755D01*
X120057205Y-98326862D01*
X120305607Y-98155210D01*
X120515749Y-97938396D01*
X120679555Y-97684751D01*
X120790730Y-97404023D01*
X120845001Y-97107000D01*
X120845001Y-96007000D01*
X119437001Y-96007000D01*
X119183001Y-96007000D01*
X117775001Y-96007000D01*
X117500000Y-96007000D01*
X117500000Y-94653000D01*
X117775001Y-94653000D01*
X117775001Y-95753000D01*
X119183001Y-95753000D01*
X119183001Y-93409622D01*
X119437001Y-93409622D01*
X119437001Y-95753000D01*
X120845001Y-95753000D01*
X120845001Y-94653000D01*
X120790730Y-94355977D01*
X120679555Y-94075249D01*
X120515749Y-93821604D01*
X120305607Y-93604790D01*
X120057205Y-93433138D01*
X119780088Y-93313245D01*
X119674741Y-93288964D01*
X119437001Y-93409622D01*
X119183001Y-93409622D01*
X118945261Y-93288964D01*
X118839914Y-93313245D01*
X118562797Y-93433138D01*
X118314395Y-93604790D01*
X118104253Y-93821604D01*
X117940447Y-94075249D01*
X117829272Y-94355977D01*
X117775001Y-94653000D01*
X117500000Y-94653000D01*
X117500000Y-88290000D01*
X131979737Y-88290000D01*
X131766169Y-88378463D01*
G37*
G04 #@! TD.AperFunction*
D19*
X135295012Y-99985411D02*
X135295011Y-102229500D01*
X135128000Y-102229500D01*
X135128000Y-102209500D01*
X135108000Y-102209500D01*
X135108000Y-101955500D01*
X135128000Y-101955500D01*
X135128000Y-101168750D01*
X134969250Y-101010000D01*
X134780000Y-101006928D01*
X134655518Y-101019188D01*
X134535820Y-101055498D01*
X134534323Y-101056298D01*
X134520537Y-101030506D01*
X134490500Y-100993906D01*
X134490500Y-100204432D01*
X134521860Y-100173072D01*
X134686250Y-100173072D01*
X134853408Y-100156608D01*
X135014142Y-100107850D01*
X135162275Y-100028671D01*
X135255000Y-99952574D01*
X135295012Y-99985411D01*
G04 #@! TA.AperFunction,Conductor*
D20*
G36*
X135295012Y-99985411D02*
G01*
X135295011Y-102229500D01*
X135128000Y-102229500D01*
X135128000Y-102209500D01*
X135108000Y-102209500D01*
X135108000Y-101955500D01*
X135128000Y-101955500D01*
X135128000Y-101168750D01*
X134969250Y-101010000D01*
X134780000Y-101006928D01*
X134655518Y-101019188D01*
X134535820Y-101055498D01*
X134534323Y-101056298D01*
X134520537Y-101030506D01*
X134490500Y-100993906D01*
X134490500Y-100204432D01*
X134521860Y-100173072D01*
X134686250Y-100173072D01*
X134853408Y-100156608D01*
X135014142Y-100107850D01*
X135162275Y-100028671D01*
X135255000Y-99952574D01*
X135295012Y-99985411D01*
G37*
G04 #@! TD.AperFunction*
D19*
X141684747Y-96618144D02*
X141959549Y-96731971D01*
X142251278Y-96790000D01*
X142548722Y-96790000D01*
X142840002Y-96732060D01*
X142840001Y-99107763D01*
X141388527Y-100559238D01*
X141265032Y-100521776D01*
X140970000Y-100492718D01*
X140674969Y-100521776D01*
X140391276Y-100607834D01*
X140129822Y-100747583D01*
X139900655Y-100935655D01*
X139712583Y-101164821D01*
X139700000Y-101188362D01*
X139687417Y-101164821D01*
X139499345Y-100935655D01*
X139270179Y-100747583D01*
X139008725Y-100607834D01*
X138725032Y-100521776D01*
X138430000Y-100492718D01*
X138134969Y-100521776D01*
X137851276Y-100607834D01*
X137589822Y-100747583D01*
X137360655Y-100935655D01*
X137172583Y-101164821D01*
X137073011Y-101351109D01*
X137073011Y-99823582D01*
X137629509Y-99267085D01*
X137835746Y-99226062D01*
X138042303Y-99140503D01*
X138228199Y-99016291D01*
X138386291Y-98858199D01*
X138510503Y-98672303D01*
X138596062Y-98465746D01*
X138639679Y-98246467D01*
X138639679Y-98022891D01*
X138600563Y-97826240D01*
X139233365Y-97826240D01*
X139314025Y-98077868D01*
X139582329Y-98206267D01*
X139870526Y-98279855D01*
X140167543Y-98295804D01*
X140461963Y-98253501D01*
X140742474Y-98154572D01*
X140885975Y-98077868D01*
X140966635Y-97826240D01*
X140100000Y-96959605D01*
X139233365Y-97826240D01*
X138600563Y-97826240D01*
X138596062Y-97803612D01*
X138562589Y-97722801D01*
X138815253Y-97618144D01*
X138863763Y-97585731D01*
X139053760Y-97646635D01*
X139920395Y-96780000D01*
X139906253Y-96765858D01*
X140085858Y-96586253D01*
X140100000Y-96600395D01*
X140114143Y-96586253D01*
X140293748Y-96765858D01*
X140279605Y-96780000D01*
X141146240Y-97646635D01*
X141397868Y-97565975D01*
X141526267Y-97297671D01*
X141599855Y-97009474D01*
X141615804Y-96712457D01*
X141593492Y-96557169D01*
X141684747Y-96618144D01*
G04 #@! TA.AperFunction,Conductor*
D20*
G36*
X141684747Y-96618144D02*
G01*
X141959549Y-96731971D01*
X142251278Y-96790000D01*
X142548722Y-96790000D01*
X142840002Y-96732060D01*
X142840001Y-99107763D01*
X141388527Y-100559238D01*
X141265032Y-100521776D01*
X140970000Y-100492718D01*
X140674969Y-100521776D01*
X140391276Y-100607834D01*
X140129822Y-100747583D01*
X139900655Y-100935655D01*
X139712583Y-101164821D01*
X139700000Y-101188362D01*
X139687417Y-101164821D01*
X139499345Y-100935655D01*
X139270179Y-100747583D01*
X139008725Y-100607834D01*
X138725032Y-100521776D01*
X138430000Y-100492718D01*
X138134969Y-100521776D01*
X137851276Y-100607834D01*
X137589822Y-100747583D01*
X137360655Y-100935655D01*
X137172583Y-101164821D01*
X137073011Y-101351109D01*
X137073011Y-99823582D01*
X137629509Y-99267085D01*
X137835746Y-99226062D01*
X138042303Y-99140503D01*
X138228199Y-99016291D01*
X138386291Y-98858199D01*
X138510503Y-98672303D01*
X138596062Y-98465746D01*
X138639679Y-98246467D01*
X138639679Y-98022891D01*
X138600563Y-97826240D01*
X139233365Y-97826240D01*
X139314025Y-98077868D01*
X139582329Y-98206267D01*
X139870526Y-98279855D01*
X140167543Y-98295804D01*
X140461963Y-98253501D01*
X140742474Y-98154572D01*
X140885975Y-98077868D01*
X140966635Y-97826240D01*
X140100000Y-96959605D01*
X139233365Y-97826240D01*
X138600563Y-97826240D01*
X138596062Y-97803612D01*
X138562589Y-97722801D01*
X138815253Y-97618144D01*
X138863763Y-97585731D01*
X139053760Y-97646635D01*
X139920395Y-96780000D01*
X139906253Y-96765858D01*
X140085858Y-96586253D01*
X140100000Y-96600395D01*
X140114143Y-96586253D01*
X140293748Y-96765858D01*
X140279605Y-96780000D01*
X141146240Y-97646635D01*
X141397868Y-97565975D01*
X141526267Y-97297671D01*
X141599855Y-97009474D01*
X141615804Y-96712457D01*
X141593492Y-96557169D01*
X141684747Y-96618144D01*
G37*
G04 #@! TD.AperFunction*
G04 #@! TD*
M02*
