G04 #@! TF.GenerationSoftware,KiCad,Pcbnew,5.1.9-73d0e3b20d~88~ubuntu20.04.1*
G04 #@! TF.CreationDate,2021-01-12T16:18:54+00:00*
G04 #@! TF.ProjectId,LEDsupply,4c454473-7570-4706-9c79-2e6b69636164,rev?*
G04 #@! TF.SameCoordinates,Original*
G04 #@! TF.FileFunction,Soldermask,Top*
G04 #@! TF.FilePolarity,Negative*
%FSLAX46Y46*%
G04 Gerber Fmt 4.6, Leading zero omitted, Abs format (unit mm)*
G04 Created by KiCad (PCBNEW 5.1.9-73d0e3b20d~88~ubuntu20.04.1) date 2021-01-12 16:18:54*
%MOMM*%
%LPD*%
G01*
G04 APERTURE LIST*
%ADD10O,1.740000X2.200000*%
%ADD11C,2.200000*%
%ADD12C,1.750000*%
%ADD13O,4.000000X1.800000*%
%ADD14O,1.800000X4.000000*%
%ADD15R,0.650000X0.400000*%
G04 APERTURE END LIST*
G04 #@! TO.C,R2*
G36*
G01*
X135032000Y-93723750D02*
X135032000Y-94236250D01*
G75*
G02*
X134813250Y-94455000I-218750J0D01*
G01*
X134375750Y-94455000D01*
G75*
G02*
X134157000Y-94236250I0J218750D01*
G01*
X134157000Y-93723750D01*
G75*
G02*
X134375750Y-93505000I218750J0D01*
G01*
X134813250Y-93505000D01*
G75*
G02*
X135032000Y-93723750I0J-218750D01*
G01*
G37*
G36*
G01*
X136607000Y-93723750D02*
X136607000Y-94236250D01*
G75*
G02*
X136388250Y-94455000I-218750J0D01*
G01*
X135950750Y-94455000D01*
G75*
G02*
X135732000Y-94236250I0J218750D01*
G01*
X135732000Y-93723750D01*
G75*
G02*
X135950750Y-93505000I218750J0D01*
G01*
X136388250Y-93505000D01*
G75*
G02*
X136607000Y-93723750I0J-218750D01*
G01*
G37*
G04 #@! TD*
G04 #@! TO.C,R1*
G36*
G01*
X134905000Y-98803750D02*
X134905000Y-99316250D01*
G75*
G02*
X134686250Y-99535000I-218750J0D01*
G01*
X134248750Y-99535000D01*
G75*
G02*
X134030000Y-99316250I0J218750D01*
G01*
X134030000Y-98803750D01*
G75*
G02*
X134248750Y-98585000I218750J0D01*
G01*
X134686250Y-98585000D01*
G75*
G02*
X134905000Y-98803750I0J-218750D01*
G01*
G37*
G36*
G01*
X136480000Y-98803750D02*
X136480000Y-99316250D01*
G75*
G02*
X136261250Y-99535000I-218750J0D01*
G01*
X135823750Y-99535000D01*
G75*
G02*
X135605000Y-99316250I0J218750D01*
G01*
X135605000Y-98803750D01*
G75*
G02*
X135823750Y-98585000I218750J0D01*
G01*
X136261250Y-98585000D01*
G75*
G02*
X136480000Y-98803750I0J-218750D01*
G01*
G37*
G04 #@! TD*
D10*
G04 #@! TO.C,JP3*
X138430000Y-102235000D03*
X140970000Y-102235000D03*
G36*
G01*
X144380000Y-101384999D02*
X144380000Y-103085001D01*
G75*
G02*
X144130001Y-103335000I-249999J0D01*
G01*
X142889999Y-103335000D01*
G75*
G02*
X142640000Y-103085001I0J249999D01*
G01*
X142640000Y-101384999D01*
G75*
G02*
X142889999Y-101135000I249999J0D01*
G01*
X144130001Y-101135000D01*
G75*
G02*
X144380000Y-101384999I0J-249999D01*
G01*
G37*
G04 #@! TD*
D11*
G04 #@! TO.C,H2*
X119126000Y-103378000D03*
G04 #@! TD*
G04 #@! TO.C,H1*
X132588000Y-89916000D03*
G04 #@! TD*
D12*
G04 #@! TO.C,JP1*
X142400000Y-95280000D03*
X142400000Y-92980000D03*
X140100000Y-96780000D03*
X140100000Y-91180000D03*
X138100000Y-96280000D03*
X138100000Y-91680000D03*
G04 #@! TD*
G04 #@! TO.C,C1*
G36*
G01*
X122933750Y-98140000D02*
X123446250Y-98140000D01*
G75*
G02*
X123665000Y-98358750I0J-218750D01*
G01*
X123665000Y-98796250D01*
G75*
G02*
X123446250Y-99015000I-218750J0D01*
G01*
X122933750Y-99015000D01*
G75*
G02*
X122715000Y-98796250I0J218750D01*
G01*
X122715000Y-98358750D01*
G75*
G02*
X122933750Y-98140000I218750J0D01*
G01*
G37*
G36*
G01*
X122933750Y-96565000D02*
X123446250Y-96565000D01*
G75*
G02*
X123665000Y-96783750I0J-218750D01*
G01*
X123665000Y-97221250D01*
G75*
G02*
X123446250Y-97440000I-218750J0D01*
G01*
X122933750Y-97440000D01*
G75*
G02*
X122715000Y-97221250I0J218750D01*
G01*
X122715000Y-96783750D01*
G75*
G02*
X122933750Y-96565000I218750J0D01*
G01*
G37*
G04 #@! TD*
G04 #@! TO.C,C2*
G36*
G01*
X135511250Y-102520000D02*
X134998750Y-102520000D01*
G75*
G02*
X134780000Y-102301250I0J218750D01*
G01*
X134780000Y-101863750D01*
G75*
G02*
X134998750Y-101645000I218750J0D01*
G01*
X135511250Y-101645000D01*
G75*
G02*
X135730000Y-101863750I0J-218750D01*
G01*
X135730000Y-102301250D01*
G75*
G02*
X135511250Y-102520000I-218750J0D01*
G01*
G37*
G36*
G01*
X135511250Y-104095000D02*
X134998750Y-104095000D01*
G75*
G02*
X134780000Y-103876250I0J218750D01*
G01*
X134780000Y-103438750D01*
G75*
G02*
X134998750Y-103220000I218750J0D01*
G01*
X135511250Y-103220000D01*
G75*
G02*
X135730000Y-103438750I0J-218750D01*
G01*
X135730000Y-103876250D01*
G75*
G02*
X135511250Y-104095000I-218750J0D01*
G01*
G37*
G04 #@! TD*
G04 #@! TO.C,C3*
G36*
G01*
X124505000Y-102491250D02*
X124505000Y-101978750D01*
G75*
G02*
X124723750Y-101760000I218750J0D01*
G01*
X125161250Y-101760000D01*
G75*
G02*
X125380000Y-101978750I0J-218750D01*
G01*
X125380000Y-102491250D01*
G75*
G02*
X125161250Y-102710000I-218750J0D01*
G01*
X124723750Y-102710000D01*
G75*
G02*
X124505000Y-102491250I0J218750D01*
G01*
G37*
G36*
G01*
X126080000Y-102491250D02*
X126080000Y-101978750D01*
G75*
G02*
X126298750Y-101760000I218750J0D01*
G01*
X126736250Y-101760000D01*
G75*
G02*
X126955000Y-101978750I0J-218750D01*
G01*
X126955000Y-102491250D01*
G75*
G02*
X126736250Y-102710000I-218750J0D01*
G01*
X126298750Y-102710000D01*
G75*
G02*
X126080000Y-102491250I0J218750D01*
G01*
G37*
G04 #@! TD*
G04 #@! TO.C,C4*
G36*
G01*
X123180000Y-103755000D02*
X121930000Y-103755000D01*
G75*
G02*
X121680000Y-103505000I0J250000D01*
G01*
X121680000Y-102755000D01*
G75*
G02*
X121930000Y-102505000I250000J0D01*
G01*
X123180000Y-102505000D01*
G75*
G02*
X123430000Y-102755000I0J-250000D01*
G01*
X123430000Y-103505000D01*
G75*
G02*
X123180000Y-103755000I-250000J0D01*
G01*
G37*
G36*
G01*
X123180000Y-100955000D02*
X121930000Y-100955000D01*
G75*
G02*
X121680000Y-100705000I0J250000D01*
G01*
X121680000Y-99955000D01*
G75*
G02*
X121930000Y-99705000I250000J0D01*
G01*
X123180000Y-99705000D01*
G75*
G02*
X123430000Y-99955000I0J-250000D01*
G01*
X123430000Y-100705000D01*
G75*
G02*
X123180000Y-100955000I-250000J0D01*
G01*
G37*
G04 #@! TD*
D13*
G04 #@! TO.C,JP2*
X121010001Y-90380000D03*
X124610001Y-92480000D03*
D14*
X119310001Y-95880000D03*
G04 #@! TD*
G04 #@! TO.C,R3*
G36*
G01*
X127197500Y-92966250D02*
X127197500Y-92453750D01*
G75*
G02*
X127416250Y-92235000I218750J0D01*
G01*
X127853750Y-92235000D01*
G75*
G02*
X128072500Y-92453750I0J-218750D01*
G01*
X128072500Y-92966250D01*
G75*
G02*
X127853750Y-93185000I-218750J0D01*
G01*
X127416250Y-93185000D01*
G75*
G02*
X127197500Y-92966250I0J218750D01*
G01*
G37*
G36*
G01*
X128772500Y-92966250D02*
X128772500Y-92453750D01*
G75*
G02*
X128991250Y-92235000I218750J0D01*
G01*
X129428750Y-92235000D01*
G75*
G02*
X129647500Y-92453750I0J-218750D01*
G01*
X129647500Y-92966250D01*
G75*
G02*
X129428750Y-93185000I-218750J0D01*
G01*
X128991250Y-93185000D01*
G75*
G02*
X128772500Y-92966250I0J218750D01*
G01*
G37*
G04 #@! TD*
G04 #@! TO.C,R4*
G36*
G01*
X130553750Y-98292500D02*
X131066250Y-98292500D01*
G75*
G02*
X131285000Y-98511250I0J-218750D01*
G01*
X131285000Y-98948750D01*
G75*
G02*
X131066250Y-99167500I-218750J0D01*
G01*
X130553750Y-99167500D01*
G75*
G02*
X130335000Y-98948750I0J218750D01*
G01*
X130335000Y-98511250D01*
G75*
G02*
X130553750Y-98292500I218750J0D01*
G01*
G37*
G36*
G01*
X130553750Y-96717500D02*
X131066250Y-96717500D01*
G75*
G02*
X131285000Y-96936250I0J-218750D01*
G01*
X131285000Y-97373750D01*
G75*
G02*
X131066250Y-97592500I-218750J0D01*
G01*
X130553750Y-97592500D01*
G75*
G02*
X130335000Y-97373750I0J218750D01*
G01*
X130335000Y-96936250D01*
G75*
G02*
X130553750Y-96717500I218750J0D01*
G01*
G37*
G04 #@! TD*
G04 #@! TO.C,R5*
G36*
G01*
X129255000Y-103761250D02*
X129255000Y-103248750D01*
G75*
G02*
X129473750Y-103030000I218750J0D01*
G01*
X129911250Y-103030000D01*
G75*
G02*
X130130000Y-103248750I0J-218750D01*
G01*
X130130000Y-103761250D01*
G75*
G02*
X129911250Y-103980000I-218750J0D01*
G01*
X129473750Y-103980000D01*
G75*
G02*
X129255000Y-103761250I0J218750D01*
G01*
G37*
G36*
G01*
X127680000Y-103761250D02*
X127680000Y-103248750D01*
G75*
G02*
X127898750Y-103030000I218750J0D01*
G01*
X128336250Y-103030000D01*
G75*
G02*
X128555000Y-103248750I0J-218750D01*
G01*
X128555000Y-103761250D01*
G75*
G02*
X128336250Y-103980000I-218750J0D01*
G01*
X127898750Y-103980000D01*
G75*
G02*
X127680000Y-103761250I0J218750D01*
G01*
G37*
G04 #@! TD*
G04 #@! TO.C,R6*
G36*
G01*
X124505000Y-103761250D02*
X124505000Y-103248750D01*
G75*
G02*
X124723750Y-103030000I218750J0D01*
G01*
X125161250Y-103030000D01*
G75*
G02*
X125380000Y-103248750I0J-218750D01*
G01*
X125380000Y-103761250D01*
G75*
G02*
X125161250Y-103980000I-218750J0D01*
G01*
X124723750Y-103980000D01*
G75*
G02*
X124505000Y-103761250I0J218750D01*
G01*
G37*
G36*
G01*
X126080000Y-103761250D02*
X126080000Y-103248750D01*
G75*
G02*
X126298750Y-103030000I218750J0D01*
G01*
X126736250Y-103030000D01*
G75*
G02*
X126955000Y-103248750I0J-218750D01*
G01*
X126955000Y-103761250D01*
G75*
G02*
X126736250Y-103980000I-218750J0D01*
G01*
X126298750Y-103980000D01*
G75*
G02*
X126080000Y-103761250I0J218750D01*
G01*
G37*
G04 #@! TD*
G04 #@! TO.C,U1*
G36*
G01*
X125245000Y-101240000D02*
X124945000Y-101240000D01*
G75*
G02*
X124795000Y-101090000I0J150000D01*
G01*
X124795000Y-99640000D01*
G75*
G02*
X124945000Y-99490000I150000J0D01*
G01*
X125245000Y-99490000D01*
G75*
G02*
X125395000Y-99640000I0J-150000D01*
G01*
X125395000Y-101090000D01*
G75*
G02*
X125245000Y-101240000I-150000J0D01*
G01*
G37*
G36*
G01*
X126515000Y-101240000D02*
X126215000Y-101240000D01*
G75*
G02*
X126065000Y-101090000I0J150000D01*
G01*
X126065000Y-99640000D01*
G75*
G02*
X126215000Y-99490000I150000J0D01*
G01*
X126515000Y-99490000D01*
G75*
G02*
X126665000Y-99640000I0J-150000D01*
G01*
X126665000Y-101090000D01*
G75*
G02*
X126515000Y-101240000I-150000J0D01*
G01*
G37*
G36*
G01*
X127785000Y-101240000D02*
X127485000Y-101240000D01*
G75*
G02*
X127335000Y-101090000I0J150000D01*
G01*
X127335000Y-99640000D01*
G75*
G02*
X127485000Y-99490000I150000J0D01*
G01*
X127785000Y-99490000D01*
G75*
G02*
X127935000Y-99640000I0J-150000D01*
G01*
X127935000Y-101090000D01*
G75*
G02*
X127785000Y-101240000I-150000J0D01*
G01*
G37*
G36*
G01*
X129055000Y-101240000D02*
X128755000Y-101240000D01*
G75*
G02*
X128605000Y-101090000I0J150000D01*
G01*
X128605000Y-99640000D01*
G75*
G02*
X128755000Y-99490000I150000J0D01*
G01*
X129055000Y-99490000D01*
G75*
G02*
X129205000Y-99640000I0J-150000D01*
G01*
X129205000Y-101090000D01*
G75*
G02*
X129055000Y-101240000I-150000J0D01*
G01*
G37*
G36*
G01*
X129055000Y-96090000D02*
X128755000Y-96090000D01*
G75*
G02*
X128605000Y-95940000I0J150000D01*
G01*
X128605000Y-94490000D01*
G75*
G02*
X128755000Y-94340000I150000J0D01*
G01*
X129055000Y-94340000D01*
G75*
G02*
X129205000Y-94490000I0J-150000D01*
G01*
X129205000Y-95940000D01*
G75*
G02*
X129055000Y-96090000I-150000J0D01*
G01*
G37*
G36*
G01*
X127785000Y-96090000D02*
X127485000Y-96090000D01*
G75*
G02*
X127335000Y-95940000I0J150000D01*
G01*
X127335000Y-94490000D01*
G75*
G02*
X127485000Y-94340000I150000J0D01*
G01*
X127785000Y-94340000D01*
G75*
G02*
X127935000Y-94490000I0J-150000D01*
G01*
X127935000Y-95940000D01*
G75*
G02*
X127785000Y-96090000I-150000J0D01*
G01*
G37*
G36*
G01*
X126515000Y-96090000D02*
X126215000Y-96090000D01*
G75*
G02*
X126065000Y-95940000I0J150000D01*
G01*
X126065000Y-94490000D01*
G75*
G02*
X126215000Y-94340000I150000J0D01*
G01*
X126515000Y-94340000D01*
G75*
G02*
X126665000Y-94490000I0J-150000D01*
G01*
X126665000Y-95940000D01*
G75*
G02*
X126515000Y-96090000I-150000J0D01*
G01*
G37*
G36*
G01*
X125245000Y-96090000D02*
X124945000Y-96090000D01*
G75*
G02*
X124795000Y-95940000I0J150000D01*
G01*
X124795000Y-94490000D01*
G75*
G02*
X124945000Y-94340000I150000J0D01*
G01*
X125245000Y-94340000D01*
G75*
G02*
X125395000Y-94490000I0J-150000D01*
G01*
X125395000Y-95940000D01*
G75*
G02*
X125245000Y-96090000I-150000J0D01*
G01*
G37*
G04 #@! TD*
D15*
G04 #@! TO.C,U2*
X133665000Y-102885000D03*
X133665000Y-101585000D03*
X131765000Y-102235000D03*
X133665000Y-102235000D03*
X131765000Y-101585000D03*
X131765000Y-102885000D03*
G04 #@! TD*
M02*
