M48
METRIC,TZ
T1C0.600
T2C0.800
T3C1.000
T4C1.200
T5C2.200
%
G90
G05
T1
X126365Y-96520
X127635Y-102235
X129558Y-99712
X135230Y-101600
X137505Y-98135
T3
X138100Y-91680
X138100Y-96280
X140100Y-91180
X140100Y-96780
X142400Y-92980
X142400Y-95280
T4
X138430Y-102235
X140970Y-102235
X143510Y-102235
T5
X132588Y-89916
X119126Y-103378
T2
G00X119310Y-94780
M15
G01X119310Y-96980
M16
G05
G00X119910Y-90380
M15
G01X122110Y-90380
M16
G05
G00X123510Y-92480
M15
G01X125710Y-92480
M16
G05
T0
M30
